<svg width="24" height="24" viewBox="0 0 24 24" fill="none" xmlns="http://www.w3.org/2000/svg">
<g clip-path="url(#clip0_2562_51335)">
<mask id="mask0_2562_51335" style="mask-type:luminance" maskUnits="userSpaceOnUse" x="0" y="0" width="24" height="24">
<path d="M0 0H24V24H0V0Z" fill="white"/>
</mask>
<g mask="url(#mask0_2562_51335)">
<mask id="mask1_2562_51335" style="mask-type:luminance" maskUnits="userSpaceOnUse" x="3" y="2" width="19" height="20">
<path d="M3 2H21.314V21.52H3V2Z" fill="white"/>
</mask>
<g mask="url(#mask1_2562_51335)">
<path d="M6.88818 21.479C6.77655 21.4357 6.68007 21.3601 6.61182 21.2617C6.54356 21.1633 6.50636 21.0467 6.50488 20.927L6.45898 17.064H5.62305C4.9278 17.0632 4.26124 16.7867 3.76953 16.2952C3.27782 15.8036 3.00106 15.1371 3 14.4419V4.62305C3.00079 3.92763 3.27731 3.26078 3.76904 2.76904C4.26078 2.27731 4.92763 2.00079 5.62305 2H18.6909C19.3863 2.00106 20.0528 2.27785 20.5444 2.76953C21.0361 3.26121 21.3129 3.92771 21.314 4.62305V14.4419C21.3129 15.1371 21.0361 15.8036 20.5444 16.2952C20.0527 16.7867 19.3862 17.0632 18.6909 17.064H14.0908C14.012 17.064 13.9341 17.0485 13.8613 17.0183C13.7885 16.9882 13.7222 16.9439 13.6665 16.8882C13.6108 16.8325 13.5668 16.7664 13.5366 16.6936C13.5065 16.6208 13.4912 16.5429 13.4912 16.4641C13.4912 16.3853 13.5065 16.3072 13.5366 16.2344C13.5668 16.1616 13.6108 16.0955 13.6665 16.0398C13.7222 15.9841 13.7885 15.9398 13.8613 15.9097C13.9341 15.8795 14.012 15.864 14.0908 15.864H18.6909C19.0653 15.8637 19.4242 15.7149 19.689 15.4502C19.9537 15.1855 20.1028 14.8263 20.103 14.4519V4.63306C20.103 4.25839 19.9542 3.89891 19.6895 3.63379C19.4247 3.36867 19.0656 3.21952 18.6909 3.21899H5.62305C5.24811 3.21926 4.88865 3.36843 4.62354 3.63354C4.35842 3.89866 4.20925 4.25812 4.20898 4.63306V14.4519C4.20951 14.8266 4.3589 15.1857 4.62402 15.4504C4.88914 15.7152 5.24838 15.864 5.62305 15.864H7.05176C7.21089 15.864 7.36355 15.9273 7.47607 16.0398C7.5886 16.1523 7.65186 16.305 7.65186 16.4641C7.65334 16.4874 7.65334 16.5106 7.65186 16.5339L7.68604 19.4231L10.835 16.0549C10.9436 15.9386 11.0939 15.8704 11.2529 15.865C11.412 15.8596 11.5668 15.9173 11.6831 16.0259C11.7994 16.1345 11.8676 16.2851 11.873 16.4441C11.8785 16.6031 11.8205 16.7577 11.7119 16.874L7.54297 21.334C7.48694 21.3941 7.4191 21.4422 7.34375 21.4751C7.2684 21.508 7.18718 21.5248 7.10498 21.5249C7.0305 21.5225 6.95723 21.5071 6.88818 21.479ZM6.70117 12.791C6.62238 12.791 6.54399 12.7755 6.47119 12.7454C6.3984 12.7152 6.33257 12.6709 6.27686 12.6152C6.22114 12.5595 6.17664 12.4934 6.14648 12.4207C6.11633 12.3479 6.10107 12.2697 6.10107 12.1909C6.10107 12.1121 6.11633 12.0342 6.14648 11.9614C6.17664 11.8886 6.22114 11.8226 6.27686 11.7668C6.33257 11.7111 6.3984 11.6669 6.47119 11.6367C6.54399 11.6066 6.62238 11.5911 6.70117 11.5911H12.8101C12.9692 11.5911 13.1219 11.6543 13.2344 11.7668C13.3469 11.8794 13.4102 12.0318 13.4102 12.1909C13.4102 12.35 13.3469 12.5027 13.2344 12.6152C13.1219 12.7278 12.9692 12.791 12.8101 12.791H6.70117ZM6.70117 9.90503C6.62238 9.90503 6.54399 9.88953 6.47119 9.85938C6.3984 9.82922 6.33257 9.78496 6.27686 9.72925C6.22114 9.67353 6.17664 9.60746 6.14648 9.53467C6.11633 9.46187 6.10107 9.38372 6.10107 9.30493C6.10107 9.22614 6.11633 9.14823 6.14648 9.07544C6.17664 9.00264 6.22114 8.93633 6.27686 8.88062C6.33257 8.8249 6.3984 8.78089 6.47119 8.75073C6.54399 8.72058 6.62238 8.70508 6.70117 8.70508H17.2598C17.4189 8.70508 17.5716 8.76809 17.6841 8.88062C17.7966 8.99314 17.8599 9.1458 17.8599 9.30493C17.8599 9.46406 17.7966 9.61673 17.6841 9.72925C17.5716 9.84177 17.4189 9.90503 17.2598 9.90503H6.70117ZM6.70117 7.15991C6.62238 7.15991 6.54399 7.14441 6.47119 7.11426C6.3984 7.08411 6.33257 7.04009 6.27686 6.98438C6.22114 6.92866 6.17664 6.86235 6.14648 6.78955C6.11633 6.71676 6.10107 6.63885 6.10107 6.56006C6.10107 6.48127 6.11633 6.40312 6.14648 6.33032C6.17664 6.25753 6.22114 6.19146 6.27686 6.13574C6.33257 6.08003 6.3984 6.03577 6.47119 6.00562C6.54399 5.97546 6.62238 5.95996 6.70117 5.95996H17.2598C17.4189 5.95996 17.5716 6.02322 17.6841 6.13574C17.7966 6.24826 17.8599 6.40093 17.8599 6.56006C17.8599 6.71919 17.7966 6.87185 17.6841 6.98438C17.5716 7.0969 17.4189 7.15991 17.2598 7.15991H6.70117Z" fill="#006CE1"/>
</g>
</g>
</g>
<defs>
<clipPath id="clip0_2562_51335">
<rect width="24" height="24" fill="white"/>
</clipPath>
</defs>
</svg>
