<svg width="24" height="24" viewBox="0 0 24 24" fill="none" xmlns="http://www.w3.org/2000/svg">
<g clip-path="url(#clip0_2562_51361)">
<path d="M10.2314 11.6475L7.40294 8.81906L5.98929 8.81851L3.62421 5.74632L5.74553 3.625L8.81771 5.99008L8.81716 7.40485L11.6456 10.2333" stroke="#006CE1" stroke-width="1.2" stroke-linecap="round" stroke-linejoin="round"/>
<path d="M15.8896 6.41277L17.8255 4.4768C17.8494 4.45294 17.8494 4.41426 17.8255 4.39041C17.0226 3.58744 15.7722 3.4435 14.8078 4.04301L14.4774 4.24841C14.0581 4.50907 13.7113 4.87135 13.4692 5.30168L13.4402 5.35329C12.8972 6.31864 12.8984 7.49763 13.4434 8.46186L13.4547 8.4818C13.4724 8.51314 13.467 8.55244 13.4416 8.57789L8.57798 13.4415C8.55253 13.467 8.51323 13.4723 8.48189 13.4546L8.46195 13.4433C7.49772 12.8983 6.31873 12.8971 5.35338 13.4401L5.30177 13.4692C4.87144 13.7112 4.50916 14.058 4.2485 14.4773L4.0431 14.8077C3.4436 15.7721 3.58753 17.0225 4.3905 17.8254C4.41436 17.8493 4.45303 17.8493 4.47689 17.8254L6.41373 15.8889C6.49184 15.8108 6.61846 15.8108 6.69656 15.8889L7.82781 17.0201C7.90591 17.0982 7.90591 17.2248 7.82781 17.3029L5.8911 19.2397C5.86725 19.2635 5.86725 19.3022 5.8911 19.326C6.69407 20.129 7.94439 20.2729 8.90881 19.6734L9.23924 19.468C9.65857 19.2074 10.0053 18.8451 10.2474 18.4148L10.535 17.9034C10.9242 17.2116 10.9749 16.3797 10.6727 15.6458C10.6627 15.6216 10.6683 15.5938 10.6868 15.5753L15.5754 10.6867C15.5939 10.6682 15.6217 10.6626 15.6459 10.6726C16.3798 10.9748 17.2117 10.9241 17.9035 10.535L18.4149 10.2473C18.8452 10.0052 19.2075 9.65848 19.4681 9.23915L19.6735 8.90872C20.273 7.9443 20.1291 6.69398 19.3261 5.89101C19.3023 5.86715 19.2636 5.86715 19.2397 5.89101L17.3031 7.82763C17.225 7.90577 17.0983 7.90573 17.0202 7.82755L15.8895 6.69554C15.8114 6.61742 15.8115 6.49085 15.8896 6.41277Z" stroke="#006CE1" stroke-width="1.2" stroke-linejoin="round"/>
<path d="M14.545 11.7165L19.7779 16.9494C20.3246 17.4961 20.3246 18.3831 19.7779 18.9298L18.9299 19.7778C18.3832 20.3245 17.4962 20.3245 16.9494 19.7778L11.7166 14.5449L14.545 11.7165Z" stroke="#006CE1" stroke-width="1.2"/>
</g>
<defs>
<clipPath id="clip0_2562_51361">
<rect width="24" height="24" fill="white"/>
</clipPath>
</defs>
</svg>
