<svg width="24" height="24" viewBox="0 0 24 24" fill="none" xmlns="http://www.w3.org/2000/svg">
<path d="M19.4004 3C20.2837 3.00021 20.9998 3.71626 21 4.59961V19.4004C20.9998 20.2837 20.2837 20.9998 19.4004 21H4.59961C3.71626 20.9998 3.00021 20.2837 3 19.4004V4.59961C3.00021 3.71626 3.71626 3.00021 4.59961 3H19.4004ZM7 8.40039C6.66863 8.40039 6.40039 8.66863 6.40039 9V15C6.40039 15.3314 6.66863 15.5996 7 15.5996C7.33137 15.5996 7.59961 15.3314 7.59961 15V9C7.59961 8.66863 7.33137 8.40039 7 8.40039ZM9.5 8.40039C9.16863 8.40039 8.90039 8.66863 8.90039 9V15C8.90039 15.3314 9.16863 15.5996 9.5 15.5996C9.83137 15.5996 10.0996 15.3314 10.0996 15V9C10.0996 8.66863 9.83137 8.40039 9.5 8.40039ZM12 8.40039C11.6686 8.40039 11.4004 8.66863 11.4004 9V15C11.4004 15.3314 11.6686 15.5996 12 15.5996C12.3314 15.5996 12.5996 15.3314 12.5996 15V9C12.5996 8.66863 12.3314 8.40039 12 8.40039ZM14.5 8.40039C14.1686 8.40039 13.9004 8.66863 13.9004 9V15C13.9004 15.3314 14.1686 15.5996 14.5 15.5996C14.8314 15.5996 15.0996 15.3314 15.0996 15V9C15.0996 8.66863 14.8314 8.40039 14.5 8.40039ZM17 8.40039C16.6686 8.40039 16.4004 8.66863 16.4004 9V15C16.4004 15.3314 16.6686 15.5996 17 15.5996C17.3314 15.5996 17.5996 15.3314 17.5996 15V9C17.5996 8.66863 17.3314 8.40039 17 8.40039Z" fill="#006CE1"/>
</svg>
