<svg width="24" height="24" viewBox="0 0 24 24" fill="none" xmlns="http://www.w3.org/2000/svg">
<path d="M12 2C17.5228 2 22 6.47715 22 12C22 17.5228 17.5228 22 12 22C6.47715 22 2 17.5228 2 12C2 6.47715 6.47715 2 12 2ZM12.1064 15.1816C11.7756 15.1821 11.507 15.4503 11.5068 15.7812V16.3994C11.5068 16.7305 11.7755 16.9995 12.1064 17C12.4378 17 12.707 16.7308 12.707 16.3994V15.7812C12.7068 15.4501 12.4377 15.1816 12.1064 15.1816ZM12.0527 6.40039C11.3252 6.40045 10.589 6.62689 10.0352 7.18652C9.47964 7.74819 9.1807 8.57133 9.18066 9.62012C9.18066 9.95149 9.4489 10.2207 9.78027 10.2207C10.1115 10.2206 10.3799 9.9514 10.3799 9.62012C10.3799 8.79767 10.6111 8.31079 10.8887 8.03027C11.1681 7.748 11.5686 7.59966 12.0527 7.59961C12.5394 7.59967 12.9563 7.75012 13.2432 8.00781C13.52 8.25668 13.7256 8.64961 13.7256 9.24609C13.7255 9.77986 13.305 10.3934 12.583 10.8926C11.9848 11.3061 11.4532 11.994 11.4531 12.8535V13.3633C11.4531 13.6946 11.7215 13.9637 12.0527 13.9639C12.384 13.9637 12.6533 13.6946 12.6533 13.3633V12.8535C12.6534 12.5152 12.8706 12.1529 13.2656 11.8799C14.1067 11.2984 14.9257 10.3705 14.9258 9.24609C14.9258 8.34556 14.6011 7.61504 14.0449 7.11523C13.4985 6.62438 12.778 6.40045 12.0527 6.40039Z" fill="#006CE1"/>
</svg>
