<svg width="24" height="24" viewBox="0 0 24 24" fill="none" xmlns="http://www.w3.org/2000/svg">
<path d="M17.7998 2C19.0148 2 20 2.98517 20 4.2002V19.7998C20 21.0148 19.0148 22 17.7998 22H6.2002C4.98517 22 4 21.0148 4 19.7998V4.2002C4 2.98517 4.98517 2 6.2002 2H17.7998ZM9 17C8.66876 17 8.4006 17.2684 8.40039 17.5996C8.40039 17.931 8.66863 18.1992 9 18.1992H12C12.3314 18.1992 12.5996 17.931 12.5996 17.5996C12.5994 17.2684 12.3312 17 12 17H9ZM9 14C8.66876 14 8.4006 14.2684 8.40039 14.5996C8.40039 14.931 8.66863 15.1992 9 15.1992H15C15.3314 15.1992 15.5996 14.931 15.5996 14.5996C15.5994 14.2684 15.3312 14 15 14H9ZM12 4.90039C11.6686 4.90039 11.4004 5.16863 11.4004 5.5V5.90039H11.1523C10.1046 5.9006 9.43768 6.65665 9.40137 7.47363C9.38351 7.87711 9.52183 8.29613 9.8418 8.61328C10.1644 8.93304 10.6207 9.09952 11.1523 9.09961H12.7773C13.0568 9.09967 13.2095 9.18364 13.2861 9.25391C13.3652 9.32654 13.4001 9.41667 13.4004 9.50195C13.4007 9.58689 13.3671 9.67499 13.29 9.74609C13.2149 9.81526 13.0618 9.90033 12.7773 9.90039H10.5C10.1686 9.90039 9.90039 10.1686 9.90039 10.5C9.90039 10.8314 10.1686 11.0996 10.5 11.0996H11.4004V11.5C11.4004 11.8314 11.6686 12.0996 12 12.0996C12.3314 12.0996 12.5996 11.8314 12.5996 11.5V11.0996H12.7773C13.3111 11.0995 13.7705 10.9347 14.1025 10.6289C14.4325 10.3251 14.601 9.91303 14.5996 9.49805C14.5967 8.62266 13.8731 7.90052 12.7773 7.90039H11.1523C10.8727 7.9003 10.7423 7.81684 10.6865 7.76172C10.6282 7.70395 10.5963 7.62278 10.6006 7.52637C10.6088 7.34356 10.754 7.09979 11.1523 7.09961H13.5L13.6211 7.08789C13.8944 7.03189 14.0996 6.7899 14.0996 6.5C14.0996 6.2101 13.8944 5.96811 13.6211 5.91211L13.5 5.90039H12.5996V5.5C12.5996 5.16863 12.3314 4.90039 12 4.90039Z" fill="#006CE1"/>
</svg>
