<svg width="24" height="24" viewBox="0 0 24 24" fill="none" xmlns="http://www.w3.org/2000/svg">
<g clip-path="url(#clip0_2562_50267)">
<mask id="mask0_2562_50267" style="mask-type:luminance" maskUnits="userSpaceOnUse" x="0" y="0" width="24" height="24">
<path d="M0 0H24V24H0V0Z" fill="white"/>
</mask>
<g mask="url(#mask0_2562_50267)">
<mask id="mask1_2562_50267" style="mask-type:luminance" maskUnits="userSpaceOnUse" x="3" y="2" width="19" height="20">
<path d="M3 2H21.314V21.52H3V2Z" fill="white"/>
</mask>
<g mask="url(#mask1_2562_50267)">
<path d="M18.692 17.064H10.467C10.3065 17.064 10.1527 17.0003 10.0392 16.8868C9.92574 16.7733 9.862 16.6195 9.862 16.459C9.862 16.2985 9.92574 16.1447 10.0392 16.0312C10.1527 15.9177 10.3065 15.854 10.467 15.854H18.692C19.0656 15.8524 19.4234 15.703 19.6873 15.4384C19.9511 15.1739 20.0995 14.8156 20.1 14.442V4.623C20.0997 4.24919 19.9515 3.8907 19.6876 3.62591C19.4238 3.36112 19.0658 3.21159 18.692 3.21H5.623C5.24841 3.21053 4.88932 3.35957 4.62444 3.62444C4.35957 3.88932 4.21053 4.24841 4.21 4.623V14.442C4.21053 14.8165 4.3596 15.1755 4.6245 15.4402C4.88941 15.7049 5.2485 15.8537 5.623 15.854H7.052C7.21246 15.854 7.36634 15.9177 7.4798 16.0312C7.59326 16.1447 7.657 16.2985 7.657 16.459C7.657 16.6195 7.59326 16.7733 7.4798 16.8868C7.36634 17.0003 7.21246 17.064 7.052 17.064H5.623C4.92767 17.0635 4.26096 16.7871 3.7692 16.2955C3.27743 15.8039 3.00079 15.1373 3 14.442L3 4.623C3.00079 3.92758 3.2774 3.26087 3.76914 2.76914C4.26087 2.2774 4.92758 2.00079 5.623 2H18.692C19.3873 2.00079 20.0539 2.27743 20.5455 2.7692C21.0371 3.26096 21.3135 3.92767 21.314 4.623V14.442C21.3132 15.1372 21.0367 15.8036 20.5452 16.2952C20.0536 16.7867 19.3872 17.0632 18.692 17.064Z" fill="#006CE1"/>
<path d="M7.052 16.486L7.1 20.92L11.269 16.46" fill="#006CE1"/>
<path d="M7.1 21.5199C6.94208 21.52 6.79052 21.4577 6.67819 21.3467C6.56587 21.2357 6.50184 21.0849 6.5 20.9269L6.447 16.4929C6.44514 16.3338 6.50658 16.1805 6.61779 16.0666C6.729 15.9528 6.88087 15.8878 7.04 15.8859C7.19913 15.8841 7.35248 15.9455 7.46632 16.0567C7.58015 16.1679 7.64514 16.3198 7.647 16.4789L7.682 19.4189L10.836 16.0499C10.945 15.9353 11.0949 15.8683 11.253 15.8635C11.4112 15.8588 11.5648 15.9168 11.6804 16.0248C11.7961 16.1328 11.8644 16.2821 11.8705 16.4402C11.8766 16.5983 11.82 16.7524 11.713 16.8689L7.544 21.3289C7.48728 21.3898 7.41852 21.4383 7.34208 21.4711C7.26565 21.504 7.18321 21.5206 7.1 21.5199Z" fill="#006CE1"/>
<path d="M18.6919 2.60547C19.2265 2.60705 19.7388 2.82018 20.1167 3.19824C20.4946 3.57628 20.7071 4.08857 20.7085 4.62305V14.4424C20.7069 14.9768 20.4946 15.4893 20.1167 15.8672C19.7388 16.2451 19.2264 16.4574 18.6919 16.459H5.62259C5.08819 16.4573 4.57576 16.245 4.19778 15.8672C3.81977 15.4893 3.60686 14.9769 3.60501 14.4424V4.62305C3.6067 4.08848 3.81978 3.57625 4.19778 3.19824C4.57579 2.82024 5.08802 2.60716 5.62259 2.60547H18.6919ZM6.69974 11.5928C6.54071 11.5928 6.38837 11.6561 6.27591 11.7686C6.16346 11.881 6.10017 12.0333 6.10013 12.1924C6.10013 12.3515 6.16339 12.5047 6.27591 12.6172C6.38834 12.7295 6.54084 12.7929 6.69974 12.793H12.8101C12.969 12.7929 13.1215 12.7295 13.2339 12.6172C13.3464 12.5047 13.4097 12.3515 13.4097 12.1924C13.4097 12.0333 13.3464 11.881 13.2339 11.7686C13.1214 11.6561 12.9692 11.5928 12.8101 11.5928H6.69974ZM6.69974 8.70703C6.54085 8.7071 6.38834 8.76957 6.27591 8.88184C6.16339 8.99436 6.10013 9.14751 6.10013 9.30664C6.10015 9.46569 6.16347 9.61798 6.27591 9.73047C6.38837 9.84293 6.54071 9.90618 6.69974 9.90625H17.2583C17.4173 9.90617 17.5697 9.84291 17.6822 9.73047C17.7946 9.61798 17.8579 9.46568 17.8579 9.30664C17.8579 9.14751 17.7947 8.99436 17.6822 8.88184C17.5697 8.76956 17.4172 8.70712 17.2583 8.70703H6.69974ZM6.69974 5.96191C6.54085 5.96199 6.38834 6.02445 6.27591 6.13672C6.16339 6.24924 6.10013 6.40239 6.10013 6.56152C6.10015 6.72058 6.16347 6.87286 6.27591 6.98535C6.38837 7.09781 6.54071 7.16106 6.69974 7.16113H17.2583C17.4173 7.16105 17.5697 7.0978 17.6822 6.98535C17.7946 6.87286 17.8579 6.72057 17.8579 6.56152C17.8579 6.40239 17.7947 6.24924 17.6822 6.13672C17.5697 6.02445 17.4172 5.962 17.2583 5.96191H6.69974Z" fill="#006CE1"/>
</g>
</g>
</g>
<defs>
<clipPath id="clip0_2562_50267">
<rect width="24" height="24" fill="white"/>
</clipPath>
</defs>
</svg>
