<svg width="24" height="24" viewBox="0 0 24 24" fill="none" xmlns="http://www.w3.org/2000/svg">
<path d="M12 2C17.5228 2 22 6.47715 22 12C22 17.5228 17.5228 22 12 22C6.47715 22 2 17.5228 2 12C2 6.47715 6.47715 2 12 2ZM15.3379 7.10352C15.0641 6.91705 14.6905 6.988 14.5039 7.26172L8.50391 16.0615C8.31725 16.3353 8.38835 16.7088 8.66211 16.8955C8.93589 17.0822 9.30942 17.012 9.49609 16.7383L15.4961 7.9375C15.6826 7.66373 15.6116 7.29013 15.3379 7.10352ZM15 13C13.8954 13 13 13.8954 13 15C13 16.1046 13.8954 17 15 17C16.1046 17 17 16.1046 17 15C17 13.8954 16.1046 13 15 13ZM15 14.2002C15.4418 14.2002 15.7998 14.5582 15.7998 15C15.7998 15.4418 15.4418 15.7998 15 15.7998C14.5582 15.7998 14.2002 15.4418 14.2002 15C14.2002 14.5582 14.5582 14.2002 15 14.2002ZM9 7C7.89543 7 7 7.89543 7 9C7 10.1046 7.89543 11 9 11C10.1046 11 11 10.1046 11 9C11 7.89543 10.1046 7 9 7ZM9 8.2002C9.44183 8.2002 9.7998 8.55817 9.7998 9C9.7998 9.44183 9.44183 9.7998 9 9.7998C8.55817 9.7998 8.2002 9.44183 8.2002 9C8.2002 8.55817 8.55817 8.2002 9 8.2002Z" fill="#006CE1"/>
</svg>
