<svg xmlns="http://www.w3.org/2000/svg" width="20" height="20" fill="none"><g mask="url(#clip_line_sm_g_1)"><g mask="url(#clip_line_sm_g_2)"><g clip-path="url(#clip_line_sm_g)" mask="url(#clip_line_sm_g_3)"><path fill="var(--color-line, #06C755)" d="M16.342 0H3.659A3.66 3.66 0 0 0 0 3.659v12.683A3.66 3.66 0 0 0 3.659 20h12.683A3.66 3.66 0 0 0 20 16.342V3.659A3.66 3.66 0 0 0 16.342 0"/><path fill="#fff" d="M16.666 9.057c0-2.983-2.991-5.41-6.667-5.41s-6.666 2.427-6.666 5.41c0 2.675 2.372 4.917 5.576 5.339.217.046.513.143.583.329.052.197.06.402.022.602l-.095.571c-.029.167-.134.66.578.36a21.5 21.5 0 0 0 5.239-3.872 4.82 4.82 0 0 0 1.429-3.334"/><path fill="var(--color-line, #06C755)" d="M14.448 10.781H12.57a.127.127 0 0 1-.127-.127V7.749a.13.13 0 0 1 .127-.128h1.874a.127.127 0 0 1 .127.128v.472a.127.127 0 0 1-.127.128H13.17v.49h1.274a.127.127 0 0 1 .127.128v.472a.127.127 0 0 1-.127.128H13.17v.49h1.274a.127.127 0 0 1 .127.128v.473a.127.127 0 0 1-.127.127m-6.926-.004a.127.127 0 0 0 .128-.127v-.473a.13.13 0 0 0-.128-.127H6.245v-2.31a.127.127 0 0 0-.127-.128h-.473a.13.13 0 0 0-.127.128v2.909a.13.13 0 0 0 .127.127zm1.128-3.165h-.473a.13.13 0 0 0-.127.128v2.91a.127.127 0 0 0 .127.127h.473a.13.13 0 0 0 .127-.127v-2.91a.127.127 0 0 0-.127-.128m3.219 0h-.473a.13.13 0 0 0-.127.127v1.728L9.93 7.673l-.01-.013-.007-.009-.007-.005-.006-.005h-.545a.127.127 0 0 0-.128.127v2.885a.127.127 0 0 0 .128.128h.472a.13.13 0 0 0 .128-.128V8.925l1.333 1.8q.013.019.033.031l.008.005h.021a.1.1 0 0 0 .034.005h.47a.13.13 0 0 0 .127-.128v-2.91a.13.13 0 0 0-.127-.127"/></g></g></g></svg>