<svg xmlns="http://www.w3.org/2000/svg" width="32" height="32" fill="none"><g clip-path="url(#clip_fb_default_g)"><rect width="32" height="32" fill="#fff" rx="16"/><path fill="var(--color-facebook, #0866FF)" d="M32 16.058c0-8.836-7.164-16-16-16s-16 7.164-16 16c0 7.503 5.166 13.8 12.135 15.529v-10.64h-3.3v-4.889h3.3v-2.107c0-5.445 2.464-7.97 7.81-7.97 1.015 0 2.764.2 3.48.398v4.432c-.378-.04-1.034-.06-1.85-.06-2.622 0-3.636.994-3.636 3.578v1.73h5.226l-.898 4.889h-4.328V31.94c7.922-.957 14.06-7.702 14.06-15.883"/></g></svg>