<svg xmlns="http://www.w3.org/2000/svg" width="20" height="20" fill="none"><rect width="20" height="20" fill="#fff" rx="8"/><path fill="var(--color-apple, #000000)" fill-rule="evenodd" d="M16.341 0A3.66 3.66 0 0 1 20 3.659v12.683A3.66 3.66 0 0 1 16.341 20H3.66A3.66 3.66 0 0 1 0 16.342V3.659A3.66 3.66 0 0 1 3.659 0zm-4.475 6.133c-.771 0-1.4.469-1.795.47-.427 0-.991-.444-1.658-.444-1.27 0-2.56 1.055-2.56 3.048 0 1.237.48 2.547 1.07 3.393.505.716.946 1.302 1.58 1.302.629 0 .907-.423 1.691-.423.797 0 .972.41 1.672.41.687 0 1.147-.638 1.58-1.263.487-.716.688-1.42.7-1.452-.045-.013-1.36-.554-1.36-2.071 0-1.315 1.037-1.908 1.095-1.954-.687-.99-1.73-1.016-2.015-1.016m.155-2.474c-.511.02-1.127.345-1.496.78-.292.333-.557.854-.557 1.388 0 .078.012.157.019.183a1 1 0 0 0 .136.012c.46 0 1.037-.312 1.38-.729.31-.377.537-.905.537-1.433a1 1 0 0 0-.018-.201" clip-rule="evenodd"/></svg>