<svg xmlns="http://www.w3.org/2000/svg" width="20" height="20" fill="none"><g clip-path="url(#clip_google_sm_g)"><mask id="a" width="20" height="20" x="0" y="0" maskUnits="userSpaceOnUse" style="mask-type:luminance"><path fill="#fff" d="M20 0H0v20h20z"/></mask><g mask="url(#a)"><path fill="#4285F4" d="M19.6 10.227c0-.709-.064-1.39-.182-2.045H10v3.868h5.382a4.6 4.6 0 0 1-1.996 3.018v2.51h3.232c1.891-1.742 2.982-4.305 2.982-7.35"/><path fill="#34A853" d="M10 20c2.7 0 4.963-.895 6.618-2.422l-3.232-2.51c-.895.6-2.041.955-3.386.955-2.605 0-4.81-1.76-5.596-4.123h-3.34v2.591A10 10 0 0 0 10 20.001"/><path fill="#FBBC04" d="M4.405 11.9c-.2-.6-.314-1.241-.314-1.9 0-.66.113-1.3.314-1.9V5.509H1.064A10 10 0 0 0 0 9.999c0 1.614.386 3.141 1.064 4.492z"/><path fill="#E94235" d="M10 3.977c1.468 0 2.786.505 3.822 1.496l2.869-2.868C14.959.99 12.695 0 10 0a9.99 9.99 0 0 0-8.937 5.51L4.404 8.1C5.19 5.736 7.394 3.977 10 3.977"/></g></g></svg>