<svg xmlns="http://www.w3.org/2000/svg" width="20" height="20" fill="none"><g clip-path="url(#clip_fb_sm_g)"><rect width="20" height="20" fill="#fff" rx="10"/><path fill="var(--color-facebook, #0866FF)" d="M20 10.037c0-5.523-4.477-10-10-10s-10 4.477-10 10c0 4.69 3.229 8.625 7.584 9.705v-6.65H5.522v-3.055h2.062V8.72c0-3.403 1.54-4.981 4.882-4.981.634 0 1.727.124 2.174.248v2.77a13 13 0 0 0-1.155-.037c-1.64 0-2.273.621-2.273 2.236v1.08h3.266l-.561 3.057h-2.705v6.87C16.163 19.366 20 15.15 20 10.038"/></g></svg>