<svg xmlns="http://www.w3.org/2000/svg" width="32" height="32" fill="none"><g clip-path="url(#clip_google_default)"><path fill="#4285F4" d="M31.36 16.364c0-1.135-.102-2.226-.29-3.273H16v6.189h8.61c-.37 2-1.497 3.694-3.192 4.829v4.015h5.171c3.026-2.786 4.771-6.888 4.771-11.76"/><path fill="#34A853" d="M16 32c4.32 0 7.941-1.433 10.588-3.876l-5.17-4.015c-1.433.96-3.266 1.527-5.419 1.527-4.167 0-7.694-2.814-8.952-6.596H1.7v4.146C4.334 28.415 9.745 32 16 32"/><path fill="#FBBC04" d="M7.047 19.04A9.6 9.6 0 0 1 6.545 16c0-1.055.182-2.08.502-3.04V8.814H1.702A16 16 0 0 0 0 16c0 2.582.618 5.025 1.702 7.185z"/><path fill="#E94235" d="M16 6.364c2.348 0 4.457.807 6.116 2.392l4.589-4.589C23.934 1.585 20.312 0 15.999 0 9.745 0 4.334 3.585 1.701 8.815l5.346 4.145c1.258-3.782 4.785-6.596 8.952-6.596"/></g></svg>