<svg xmlns="http://www.w3.org/2000/svg" width="24" height="24" fill="none"><g mask="url(#clip_line_md_g_1)"><g mask="url(#clip_line_md_g_2)"><g clip-path="url(#clip_line_md_g)" mask="url(#clip_line_md_g_3)"><path fill="var(--color-line, #06C755)" d="M19.61 0H4.39A4.39 4.39 0 0 0 0 4.39v15.22A4.39 4.39 0 0 0 4.39 24h15.22A4.39 4.39 0 0 0 24 19.61V4.39A4.39 4.39 0 0 0 19.61 0"/><path fill="#fff" d="M19.999 10.869c0-3.58-3.589-6.493-8-6.493s-8 2.913-8 6.493c0 3.21 2.847 5.9 6.692 6.406.26.056.615.172.7.395.062.236.071.483.026.723l-.114.685c-.035.2-.161.791.693.431a25.8 25.8 0 0 0 6.287-4.646 5.78 5.78 0 0 0 1.715-4"/><path fill="var(--color-line, #06C755)" d="M17.337 12.938h-2.253a.153.153 0 0 1-.153-.154V9.3a.153.153 0 0 1 .153-.153h2.248a.153.153 0 0 1 .153.153v.567a.153.153 0 0 1-.153.152h-1.528v.59h1.528a.15.15 0 0 1 .153.152v.568a.153.153 0 0 1-.153.152h-1.528v.59h1.528a.153.153 0 0 1 .153.152v.568a.153.153 0 0 1-.153.153m-8.31-.007a.153.153 0 0 0 .153-.153v-.567a.153.153 0 0 0-.153-.153H7.494V9.292a.153.153 0 0 0-.153-.153h-.567a.153.153 0 0 0-.153.153v3.49a.153.153 0 0 0 .153.154zm1.353-3.798h-.567a.153.153 0 0 0-.153.153v3.492a.15.15 0 0 0 .153.153h.567a.15.15 0 0 0 .153-.153V9.292a.153.153 0 0 0-.153-.153m3.863.001h-.567a.154.154 0 0 0-.153.152v2.074l-1.6-2.158-.012-.016-.01-.01-.007-.007-.008-.006h-.654a.153.153 0 0 0-.153.153v3.462a.153.153 0 0 0 .153.153h.567a.153.153 0 0 0 .153-.153V10.71l1.6 2.16q.016.023.039.038l.01.006h.026a.2.2 0 0 0 .04.005h.564a.153.153 0 0 0 .153-.153V9.274a.153.153 0 0 0-.153-.153"/></g></g></g></svg>