<svg xmlns="http://www.w3.org/2000/svg" width="24" height="24" fill="none"><rect width="24" height="24" fill="#fff" rx="8"/><path fill="var(--color-apple, #000000)" fill-rule="evenodd" d="M19.61 0A4.39 4.39 0 0 1 24 4.39v15.22A4.39 4.39 0 0 1 19.61 24H4.39A4.39 4.39 0 0 1 0 19.61V4.39A4.39 4.39 0 0 1 4.39 0zm-5.371 7.36c-.925 0-1.68.562-2.154.562-.513 0-1.19-.531-1.99-.531-1.524 0-3.07 1.266-3.07 3.657 0 1.485.575 3.056 1.282 4.072.607.86 1.135 1.563 1.897 1.563.754 0 1.088-.508 2.03-.508.955 0 1.165.492 2.005.493.824 0 1.376-.767 1.897-1.517.583-.86.824-1.703.84-1.742-.055-.016-1.633-.665-1.633-2.485 0-1.579 1.244-2.29 1.314-2.345-.824-1.188-2.076-1.219-2.418-1.219m.187-2.97c-.614.024-1.353.414-1.796.938-.35.398-.669 1.024-.669 1.665 0 .093.015.187.023.219a1 1 0 0 0 .164.015c.552 0 1.243-.375 1.656-.875.373-.453.645-1.087.645-1.72 0-.085-.008-.171-.023-.242" clip-rule="evenodd"/></svg>