<svg xmlns="http://www.w3.org/2000/svg" width="32" height="32" fill="none"><g mask="url(#clip_line_default_g_1)"><g mask="url(#clip_line_default_g_2)"><g clip-path="url(#clip_line_default_g)" mask="url(#clip_line_default_g_3)"><path fill="var(--color-line, #06C755)" d="M26.146 0H5.854A5.854 5.854 0 0 0 0 5.854v20.292A5.854 5.854 0 0 0 5.854 32h20.292A5.854 5.854 0 0 0 32 26.146V5.854A5.854 5.854 0 0 0 26.146 0"/><path fill="#fff" d="M26.665 14.492c0-4.773-4.785-8.657-10.666-8.657S5.332 9.719 5.332 14.492c0 4.28 3.796 7.867 8.923 8.542.346.074.82.229.933.526.083.315.095.644.035.964l-.152.914c-.047.266-.215 1.054.924.574a34.5 34.5 0 0 0 8.382-6.194 7.7 7.7 0 0 0 2.287-5.334"/><path fill="var(--color-line, #06C755)" d="M23.116 17.25h-3.004a.204.204 0 0 1-.204-.205v-4.648a.204.204 0 0 1 .204-.204h2.998a.204.204 0 0 1 .204.204v.756a.204.204 0 0 1-.204.204h-2.038v.786h2.038a.204.204 0 0 1 .204.204v.756a.204.204 0 0 1-.204.204h-2.038v.785h2.038a.204.204 0 0 1 .204.204v.756a.204.204 0 0 1-.204.204m-11.08-.006a.204.204 0 0 0 .204-.204v-.756a.204.204 0 0 0-.204-.204H9.992V12.39a.204.204 0 0 0-.204-.205h-.756a.204.204 0 0 0-.204.204v4.655a.204.204 0 0 0 .204.204zm1.803-5.064h-.756a.205.205 0 0 0-.204.204v4.656a.2.2 0 0 0 .126.188q.038.015.078.015h.756a.205.205 0 0 0 .204-.203V12.39a.203.203 0 0 0-.204-.205m5.151 0h-.756a.21.21 0 0 0-.189.126.2.2 0 0 0-.015.078v2.766l-2.134-2.878-.016-.021-.012-.014-.01-.009-.011-.008h-.872a.204.204 0 0 0-.204.204v4.616a.204.204 0 0 0 .204.204h.756a.204.204 0 0 0 .204-.204V14.28l2.133 2.88q.021.03.052.05l.014.008h.034a.2.2 0 0 0 .054.007h.752a.204.204 0 0 0 .204-.204v-4.656a.204.204 0 0 0-.204-.204"/></g></g></g></svg>