<svg xmlns="http://www.w3.org/2000/svg" width="24" height="24" fill="none"><g clip-path="url(#clip_google_md_g)"><mask id="a" width="24" height="24" x="0" y="0" maskUnits="userSpaceOnUse" style="mask-type:luminance"><path fill="#fff" d="M24 0H0v24h24z"/></mask><g mask="url(#a)"><path fill="#4285F4" d="M23.52 12.273c0-.851-.076-1.67-.218-2.455H12v4.642h6.458a5.52 5.52 0 0 1-2.394 3.622v3.011h3.878c2.269-2.09 3.578-5.166 3.578-8.82"/><path fill="#34A853" d="M12 24c3.24 0 5.956-1.074 7.941-2.907l-3.878-3.01c-1.074.72-2.45 1.144-4.064 1.144-3.125 0-5.77-2.11-6.714-4.947h-4.01v3.11A12 12 0 0 0 12 24"/><path fill="#FBBC04" d="M5.285 14.28A7.2 7.2 0 0 1 4.91 12c0-.79.136-1.56.376-2.28V6.611h-4.01A12 12 0 0 0 0 12.001c0 1.936.464 3.768 1.276 5.388z"/><path fill="#E94235" d="M12 4.773c1.761 0 3.343.605 4.587 1.794l3.442-3.442C17.95 1.19 15.234 0 11.999 0 7.31 0 3.25 2.69 1.276 6.61l4.009 3.11c.943-2.836 3.589-4.947 6.714-4.947"/></g></g></svg>