<svg xmlns="http://www.w3.org/2000/svg" width="24" height="24" fill="none"><g clip-path="url(#clip_fb_md_g)"><rect width="24" height="24" fill="#fff" rx="12"/><path fill="var(--color-facebook, #0866FF)" d="M24 12.044c0-6.628-5.373-12-12-12s-12 5.372-12 12c0 5.627 3.874 10.35 9.101 11.646v-7.98H6.627v-3.666H9.1v-1.58c0-4.085 1.849-5.978 5.858-5.978.76 0 2.073.15 2.61.298v3.324c-.284-.03-.776-.044-1.387-.044-1.968 0-2.728.745-2.728 2.683v1.297h3.92L16.7 15.71h-3.246v8.245C19.396 23.238 24 18.179 24 12.044"/></g></svg>