<svg xmlns="http://www.w3.org/2000/svg" width="32" height="32" fill="none"><rect width="32" height="32" fill="#fff" rx="8"/><path fill="var(--color-apple, #000000)" fill-rule="evenodd" d="M26.146 0A5.854 5.854 0 0 1 32 5.854v20.293A5.854 5.854 0 0 1 26.146 32H5.854A5.854 5.854 0 0 1 0 26.147V5.854A5.854 5.854 0 0 1 5.854 0zm-7.16 9.813c-1.234 0-2.24.75-2.872.75-.684 0-1.586-.708-2.654-.708-2.031 0-4.094 1.688-4.094 4.876 0 1.98.767 4.074 1.71 5.43.809 1.145 1.514 2.083 2.53 2.083 1.005 0 1.45-.678 2.705-.678 1.275 0 1.555.657 2.674.657 1.099 0 1.835-1.021 2.53-2.021.777-1.147 1.099-2.272 1.12-2.324-.073-.02-2.178-.885-2.178-3.313 0-2.105 1.659-3.053 1.752-3.126-1.098-1.584-2.768-1.626-3.224-1.626m.248-3.96c-.819.032-1.803.553-2.394 1.25-.467.532-.892 1.366-.892 2.22 0 .125.02.25.03.293.053.01.136.02.219.02.736 0 1.658-.5 2.208-1.166.497-.605.86-1.45.86-2.293 0-.115-.01-.23-.03-.323" clip-rule="evenodd"/></svg>