<svg width="205" height="22" viewBox="0 0 205 22" fill="none" xmlns="http://www.w3.org/2000/svg"><path d="M33.5702 3.58984H21.4502C18.6402 3.58984 17.3902 5.34984 17.1102 7.02984V3.58984H10.3802C9.44017 3.58984 8.99018 3.86984 8.53018 4.52984L6.68018 7.22984H33.5702V3.59984V3.58984Z" fill="var(--color-white, #ffffff)"/><path d="M0 17.7896H4.83L10.88 8.01961L6.56 7.59961L0 17.7896Z" fill="var(--color-white, #ffffff)"/><path d="M38.2498 3.58984H34.2798V7.21984H38.2498V3.58984Z" fill="var(--color-white, #ffffff)"/><path d="M63.4798 9.2693L51.0398 8.5293C51.0398 10.4293 52.2898 11.7093 54.4198 11.8793L63.2798 12.5593C63.9598 12.6193 64.3898 12.7893 64.3898 13.3593C64.3898 13.9293 63.9098 14.0993 62.9098 14.0993H50.8398V17.7893H63.1598C67.0498 17.7893 68.7498 16.4293 68.7498 13.3293C68.7498 10.5493 67.2198 9.4993 63.4698 9.2693H63.4798Z" fill="var(--color-white, #ffffff)"/><path d="M50.8898 8.52914L46.9698 8.29914V12.4691C46.9698 13.7791 46.3198 14.1691 44.0498 14.1691H40.9298C39.0598 14.1691 38.2598 13.6291 38.2598 12.4691V7.89914L34.2898 7.61914V12.8191H34.1998C33.9698 11.3191 33.4098 9.55914 29.6298 9.29914L17.1898 8.47914C17.1898 10.3791 18.5498 11.5191 20.6798 11.7491L29.3398 12.6291C30.0198 12.6891 30.5298 12.8891 30.5298 13.4491C30.5298 14.0691 30.0198 14.1291 29.2198 14.1291H17.0398V8.44914L13.0698 8.18914V17.7891H29.2498C32.8598 17.7891 34.0198 15.9191 34.1898 14.3491H34.2798C34.7298 16.8191 36.8898 17.7891 40.5498 17.7891H44.5798C48.8698 17.7891 50.8798 16.4791 50.8798 13.4191V8.53914L50.8898 8.52914Z" fill="var(--color-white, #ffffff)"/><path d="M68.4902 7.22961V3.59961H55.1402C52.3602 3.59961 51.1102 5.31961 50.8902 6.97961C50.8902 6.99961 50.8902 7.01961 50.8902 7.03961V3.59961H46.9702V7.22961H68.4902Z" fill="var(--color-white, #ffffff)"/><path d="M188.53 0L195.24 10.63L188.53 21.25H197.82L199.89 17.98L204.53 10.63L199.89 3.27L197.82 0H188.53Z" fill="var(--asus-blue-light, #0096D2)"/><path d="M195.24 10.6309L199.89 17.9809L204.53 10.6309H195.24Z" fill="var(--asus-blue-dark, #0064d2)"/><path d="M195.24 10.6295H204.53L199.89 3.26953L195.24 10.6295Z" fill="var(--asus-blue, #007dd2)"/><path d="M82.6899 17.6895V3.68945H89.2499C90.9299 3.68945 92.2099 4.01945 93.0899 4.67945C93.9699 5.33945 94.4099 6.21945 94.4099 7.32945C94.4099 8.07945 94.2399 8.70945 93.8899 9.23945C93.5399 9.76945 93.0799 10.1695 92.4999 10.4595C91.9199 10.7495 91.2899 10.8895 90.6099 10.8895L90.9699 10.1695C91.7599 10.1695 92.4599 10.3095 93.0899 10.5995C93.7199 10.8895 94.2099 11.2995 94.5799 11.8495C94.9499 12.3995 95.1299 13.0795 95.1299 13.8895C95.1299 15.0895 94.6699 16.0195 93.7499 16.6895C92.8299 17.3595 91.4599 17.6895 89.6499 17.6895H82.6899ZM85.2899 15.6495H89.4899C90.4599 15.6495 91.2099 15.4895 91.7299 15.1695C92.2499 14.8495 92.5099 14.3395 92.5099 13.6295C92.5099 12.9195 92.2499 12.4295 91.7299 12.0995C91.2099 11.7695 90.4599 11.6095 89.4899 11.6095H85.0899V9.58945H88.9699C89.8799 9.58945 90.5699 9.42945 91.0599 9.10945C91.5499 8.78945 91.7899 8.30945 91.7899 7.66945C91.7899 7.02945 91.5499 6.52945 91.0599 6.20945C90.5699 5.88945 89.8799 5.72945 88.9699 5.72945H85.2899V15.6495Z" fill="var(--color-white, #ffffff)"/><path d="M103.73 17.8992C101.81 17.8992 100.31 17.3592 99.2198 16.2792C98.1298 15.1992 97.5898 13.6392 97.5898 11.5992V3.69922H100.19V11.4992C100.19 12.9392 100.5 13.9892 101.12 14.6392C101.74 15.2892 102.62 15.6192 103.75 15.6192C104.88 15.6192 105.76 15.2892 106.37 14.6392C106.98 13.9892 107.29 12.9392 107.29 11.4992V3.69922H109.85V11.5992C109.85 13.6392 109.31 15.1992 108.22 16.2792C107.13 17.3592 105.64 17.8992 103.73 17.8992Z" fill="var(--color-white, #ffffff)"/><path d="M117.63 17.9C116.54 17.9 115.49 17.74 114.49 17.43C113.49 17.12 112.7 16.71 112.11 16.22L113.01 14.2C113.57 14.64 114.26 15.01 115.09 15.3C115.92 15.59 116.76 15.74 117.63 15.74C118.36 15.74 118.96 15.66 119.41 15.5C119.86 15.34 120.2 15.12 120.41 14.85C120.62 14.58 120.73 14.27 120.73 13.92C120.73 13.49 120.58 13.15 120.27 12.89C119.96 12.63 119.57 12.42 119.08 12.27C118.59 12.12 118.05 11.97 117.46 11.84C116.87 11.71 116.27 11.55 115.68 11.37C115.09 11.19 114.55 10.96 114.06 10.67C113.57 10.38 113.18 10 112.87 9.52C112.56 9.04 112.41 8.43 112.41 7.68C112.41 6.93 112.61 6.22 113.02 5.59C113.43 4.96 114.05 4.45 114.88 4.07C115.71 3.69 116.77 3.5 118.05 3.5C118.89 3.5 119.72 3.61 120.55 3.82C121.38 4.03 122.1 4.34 122.71 4.74L121.89 6.76C121.26 6.39 120.62 6.11 119.95 5.93C119.28 5.75 118.64 5.66 118.03 5.66C117.31 5.66 116.73 5.75 116.28 5.92C115.83 6.09 115.51 6.32 115.3 6.6C115.09 6.88 114.99 7.2 114.99 7.56C114.99 7.99 115.14 8.33 115.44 8.59C115.74 8.85 116.13 9.05 116.62 9.2C117.11 9.35 117.65 9.49 118.25 9.63C118.85 9.77 119.45 9.93 120.04 10.1C120.63 10.27 121.17 10.5 121.66 10.78C122.15 11.06 122.54 11.44 122.84 11.92C123.14 12.4 123.29 13.01 123.29 13.74C123.29 14.47 123.09 15.18 122.68 15.81C122.27 16.44 121.65 16.95 120.81 17.33C119.97 17.71 118.91 17.9 117.63 17.9Z" fill="var(--color-white, #ffffff)"/><path d="M126.07 17.6895V3.68945H128.67V17.6895H126.07Z" fill="var(--color-white, #ffffff)"/><path d="M131.85 17.6895V3.68945H133.99L142.77 14.4695H141.71V3.68945H144.29V17.6895H142.15L133.37 6.90945H134.43V17.6895H131.85Z" fill="var(--color-white, #ffffff)"/><path d="M147.45 17.6895V3.68945H157.67V5.86945H150.05V15.5095H157.95V17.6895H147.45ZM149.85 11.6495V9.50945H156.81V11.6495H149.85Z" fill="var(--color-white, #ffffff)"/><path d="M165.39 17.9C164.3 17.9 163.25 17.74 162.25 17.43C161.25 17.12 160.46 16.71 159.87 16.22L160.77 14.2C161.33 14.64 162.02 15.01 162.85 15.3C163.68 15.59 164.52 15.74 165.39 15.74C166.12 15.74 166.72 15.66 167.17 15.5C167.62 15.34 167.96 15.12 168.17 14.85C168.38 14.58 168.49 14.27 168.49 13.92C168.49 13.49 168.34 13.15 168.03 12.89C167.72 12.63 167.33 12.42 166.84 12.27C166.35 12.12 165.81 11.97 165.22 11.84C164.63 11.71 164.03 11.55 163.44 11.37C162.85 11.19 162.31 10.96 161.82 10.67C161.33 10.38 160.94 10 160.63 9.52C160.32 9.04 160.17 8.43 160.17 7.68C160.17 6.93 160.37 6.22 160.78 5.59C161.19 4.96 161.81 4.45 162.64 4.07C163.47 3.69 164.53 3.5 165.81 3.5C166.65 3.5 167.48 3.61 168.31 3.82C169.14 4.03 169.86 4.34 170.47 4.74L169.65 6.76C169.02 6.39 168.38 6.11 167.71 5.93C167.04 5.75 166.4 5.66 165.79 5.66C165.07 5.66 164.49 5.75 164.04 5.92C163.59 6.09 163.27 6.32 163.06 6.6C162.85 6.88 162.75 7.2 162.75 7.56C162.75 7.99 162.9 8.33 163.2 8.59C163.5 8.85 163.89 9.05 164.38 9.2C164.87 9.35 165.41 9.49 166.01 9.63C166.61 9.77 167.21 9.93 167.8 10.1C168.39 10.27 168.93 10.5 169.42 10.78C169.91 11.06 170.3 11.44 170.6 11.92C170.9 12.4 171.05 13.01 171.05 13.74C171.05 14.47 170.85 15.18 170.44 15.81C170.03 16.44 169.41 16.95 168.57 17.33C167.73 17.71 166.67 17.9 165.39 17.9Z" fill="var(--color-white, #ffffff)"/><path d="M178.17 17.9C177.08 17.9 176.03 17.74 175.03 17.43C174.03 17.12 173.24 16.71 172.65 16.22L173.55 14.2C174.11 14.64 174.8 15.01 175.63 15.3C176.46 15.59 177.3 15.74 178.17 15.74C178.9 15.74 179.5 15.66 179.95 15.5C180.4 15.34 180.74 15.12 180.95 14.85C181.16 14.58 181.27 14.27 181.27 13.92C181.27 13.49 181.12 13.15 180.81 12.89C180.5 12.63 180.11 12.42 179.62 12.27C179.13 12.12 178.59 11.97 178 11.84C177.41 11.71 176.81 11.55 176.22 11.37C175.63 11.19 175.09 10.96 174.6 10.67C174.11 10.38 173.72 10 173.41 9.52C173.1 9.04 172.95 8.43 172.95 7.68C172.95 6.93 173.15 6.22 173.56 5.59C173.97 4.96 174.59 4.45 175.42 4.07C176.25 3.69 177.31 3.5 178.59 3.5C179.43 3.5 180.26 3.61 181.09 3.82C181.92 4.03 182.64 4.34 183.25 4.74L182.43 6.76C181.8 6.39 181.16 6.11 180.49 5.93C179.82 5.75 179.18 5.66 178.57 5.66C177.85 5.66 177.27 5.75 176.82 5.92C176.37 6.09 176.05 6.32 175.84 6.6C175.63 6.88 175.53 7.2 175.53 7.56C175.53 7.99 175.68 8.33 175.98 8.59C176.28 8.85 176.67 9.05 177.16 9.2C177.65 9.35 178.19 9.49 178.79 9.63C179.39 9.77 179.99 9.93 180.58 10.1C181.17 10.27 181.71 10.5 182.2 10.78C182.69 11.06 183.08 11.44 183.38 11.92C183.68 12.4 183.83 13.01 183.83 13.74C183.83 14.47 183.63 15.18 183.22 15.81C182.81 16.44 182.19 16.95 181.35 17.33C180.51 17.71 179.45 17.9 178.17 17.9Z" fill="var(--color-white, #ffffff)"/></svg>