<svg width="122" height="22" viewBox="0 0 122 22" fill="none" xmlns="http://www.w3.org/2000/svg"><path d="M105.83 0L112.54 10.63L105.83 21.25H115.12L117.19 17.98L121.83 10.63L117.19 3.27L115.12 0H105.83Z" fill="var(--asus-blue-light, #0096D2)"/><path d="M112.54 10.6309L117.19 17.9809L121.83 10.6309H112.54Z" fill="var(--asus-blue-dark, #0064d2)"/><path d="M112.54 10.6295H121.83L117.19 3.26953L112.54 10.6295Z" fill="var(--asus-blue, #007dd2)"/><path d="M0 17.6895V3.68945H6.56C8.24 3.68945 9.52 4.01945 10.4 4.67945C11.28 5.33945 11.72 6.21945 11.72 7.32945C11.72 8.07945 11.55 8.70945 11.2 9.23945C10.85 9.76945 10.39 10.1695 9.81 10.4595C9.23 10.7495 8.6 10.8895 7.92 10.8895L8.28 10.1695C9.07 10.1695 9.77 10.3095 10.4 10.5995C11.03 10.8895 11.52 11.2995 11.89 11.8495C12.26 12.3995 12.44 13.0795 12.44 13.8895C12.44 15.0895 11.98 16.0195 11.06 16.6895C10.14 17.3595 8.77 17.6895 6.96 17.6895H0ZM2.6 15.6495H6.8C7.77 15.6495 8.52 15.4895 9.04 15.1695C9.56 14.8495 9.82 14.3395 9.82 13.6295C9.82 12.9195 9.56 12.4295 9.04 12.0995C8.52 11.7695 7.77 11.6095 6.8 11.6095H2.4V9.58945H6.28C7.19 9.58945 7.88 9.42945 8.37 9.10945C8.86 8.78945 9.1 8.30945 9.1 7.66945C9.1 7.02945 8.86 6.52945 8.37 6.20945C7.88 5.88945 7.19 5.72945 6.28 5.72945H2.6V15.6495Z" fill="var(--color-white, #ffffff)"/><path d="M21.0399 17.8895C19.1199 17.8895 17.6199 17.3495 16.5299 16.2695C15.4399 15.1895 14.8999 13.6295 14.8999 11.5895V3.68945H17.4999V11.4895C17.4999 12.9295 17.8099 13.9795 18.4299 14.6295C19.0499 15.2795 19.9299 15.6095 21.0599 15.6095C22.1899 15.6095 23.0699 15.2795 23.6799 14.6295C24.2899 13.9795 24.5999 12.9295 24.5999 11.4895V3.68945H27.1599V11.5895C27.1599 13.6295 26.6199 15.1895 25.5299 16.2695C24.4399 17.3495 22.9499 17.8895 21.0399 17.8895Z" fill="var(--color-white, #ffffff)"/><path d="M34.9399 17.8902C33.8499 17.8902 32.7999 17.7302 31.7999 17.4202C30.7999 17.1102 30.0099 16.7002 29.4199 16.2102L30.3199 14.1902C30.8799 14.6302 31.5699 15.0002 32.3999 15.2902C33.2299 15.5802 34.0699 15.7302 34.9399 15.7302C35.6699 15.7302 36.2699 15.6502 36.7199 15.4902C37.1699 15.3302 37.5099 15.1102 37.7199 14.8402C37.9299 14.5702 38.0399 14.2602 38.0399 13.9102C38.0399 13.4802 37.8899 13.1402 37.5799 12.8802C37.2699 12.6202 36.8799 12.4102 36.3899 12.2602C35.8999 12.1102 35.3599 11.9602 34.7699 11.8302C34.1799 11.7002 33.5799 11.5402 32.9899 11.3602C32.3999 11.1802 31.8599 10.9502 31.3699 10.6602C30.8799 10.3702 30.4899 9.99023 30.1799 9.51023C29.8699 9.03023 29.7199 8.42023 29.7199 7.67023C29.7199 6.92023 29.9199 6.21023 30.3299 5.58023C30.7399 4.95023 31.3599 4.44023 32.1899 4.06023C33.0199 3.68023 34.0799 3.49023 35.3599 3.49023C36.1999 3.49023 37.0299 3.60023 37.8599 3.81023C38.6899 4.02023 39.4099 4.33023 40.0199 4.73023L39.1999 6.75023C38.5699 6.38023 37.9299 6.10023 37.2599 5.92023C36.5899 5.74023 35.9499 5.65023 35.3399 5.65023C34.6199 5.65023 34.0399 5.74023 33.5899 5.91023C33.1399 6.08023 32.8199 6.31023 32.6099 6.59023C32.3999 6.87023 32.2999 7.19023 32.2999 7.55023C32.2999 7.98023 32.4499 8.32023 32.7499 8.58023C33.0499 8.84023 33.4399 9.04023 33.9299 9.19023C34.4199 9.34023 34.9599 9.48023 35.5599 9.62023C36.1599 9.76023 36.7599 9.92023 37.3499 10.0902C37.9399 10.2602 38.4799 10.4902 38.9699 10.7702C39.4599 11.0502 39.8499 11.4302 40.1499 11.9102C40.4499 12.3902 40.5999 13.0002 40.5999 13.7302C40.5999 14.4602 40.3999 15.1702 39.9899 15.8002C39.5799 16.4302 38.9599 16.9402 38.1199 17.3202C37.2799 17.7002 36.2199 17.8902 34.9399 17.8902Z" fill="var(--color-white, #ffffff)"/><path d="M43.3799 17.6895V3.68945H45.9799V17.6895H43.3799Z" fill="var(--color-white, #ffffff)"/><path d="M49.1499 17.6895V3.68945H51.2899L60.0699 14.4695H59.0099V3.68945H61.5899V17.6895H59.4499L50.6699 6.90945H51.7299V17.6895H49.1499Z" fill="var(--color-white, #ffffff)"/><path d="M64.7598 17.6895V3.68945H74.9798V5.86945H67.3598V15.5095H75.2598V17.6895H64.7598ZM67.1498 11.6495V9.50945H74.1098V11.6495H67.1498Z" fill="var(--color-white, #ffffff)"/><path d="M82.7002 17.8902C81.6102 17.8902 80.5602 17.7302 79.5602 17.4202C78.5602 17.1102 77.7702 16.7002 77.1802 16.2102L78.0802 14.1902C78.6402 14.6302 79.3302 15.0002 80.1602 15.2902C80.9902 15.5802 81.8302 15.7302 82.7002 15.7302C83.4302 15.7302 84.0302 15.6502 84.4802 15.4902C84.9302 15.3302 85.2702 15.1102 85.4802 14.8402C85.6902 14.5702 85.8002 14.2602 85.8002 13.9102C85.8002 13.4802 85.6502 13.1402 85.3402 12.8802C85.0302 12.6202 84.6402 12.4102 84.1502 12.2602C83.6602 12.1102 83.1202 11.9602 82.5302 11.8302C81.9402 11.7002 81.3402 11.5402 80.7502 11.3602C80.1602 11.1802 79.6202 10.9502 79.1302 10.6602C78.6402 10.3702 78.2502 9.99023 77.9402 9.51023C77.6302 9.03023 77.4802 8.42023 77.4802 7.67023C77.4802 6.92023 77.6802 6.21023 78.0902 5.58023C78.5002 4.95023 79.1202 4.44023 79.9502 4.06023C80.7802 3.68023 81.8402 3.49023 83.1202 3.49023C83.9602 3.49023 84.7902 3.60023 85.6202 3.81023C86.4502 4.02023 87.1702 4.33023 87.7802 4.73023L86.9602 6.75023C86.3302 6.38023 85.6902 6.10023 85.0202 5.92023C84.3502 5.74023 83.7102 5.65023 83.1002 5.65023C82.3802 5.65023 81.8002 5.74023 81.3502 5.91023C80.9002 6.08023 80.5802 6.31023 80.3702 6.59023C80.1602 6.87023 80.0602 7.19023 80.0602 7.55023C80.0602 7.98023 80.2102 8.32023 80.5102 8.58023C80.8102 8.84023 81.2002 9.04023 81.6902 9.19023C82.1802 9.34023 82.7202 9.48023 83.3202 9.62023C83.9202 9.76023 84.5202 9.92023 85.1102 10.0902C85.7002 10.2602 86.2402 10.4902 86.7302 10.7702C87.2202 11.0502 87.6102 11.4302 87.9102 11.9102C88.2102 12.3902 88.3602 13.0002 88.3602 13.7302C88.3602 14.4602 88.1602 15.1702 87.7502 15.8002C87.3402 16.4302 86.7202 16.9402 85.8802 17.3202C85.0402 17.7002 83.9802 17.8902 82.7002 17.8902Z" fill="var(--color-white, #ffffff)"/><path d="M95.48 17.8902C94.39 17.8902 93.34 17.7302 92.34 17.4202C91.34 17.1102 90.55 16.7002 89.96 16.2102L90.86 14.1902C91.42 14.6302 92.11 15.0002 92.94 15.2902C93.77 15.5802 94.61 15.7302 95.48 15.7302C96.21 15.7302 96.81 15.6502 97.26 15.4902C97.71 15.3302 98.05 15.1102 98.26 14.8402C98.47 14.5702 98.58 14.2602 98.58 13.9102C98.58 13.4802 98.43 13.1402 98.12 12.8802C97.81 12.6202 97.42 12.4102 96.93 12.2602C96.44 12.1102 95.9 11.9602 95.31 11.8302C94.72 11.7002 94.12 11.5402 93.53 11.3602C92.94 11.1802 92.4 10.9502 91.91 10.6602C91.42 10.3702 91.03 9.99023 90.72 9.51023C90.41 9.03023 90.26 8.42023 90.26 7.67023C90.26 6.92023 90.46 6.21023 90.87 5.58023C91.28 4.95023 91.9 4.44023 92.73 4.06023C93.56 3.68023 94.62 3.49023 95.9 3.49023C96.74 3.49023 97.57 3.60023 98.4 3.81023C99.23 4.02023 99.95 4.33023 100.56 4.73023L99.74 6.75023C99.11 6.38023 98.47 6.10023 97.8 5.92023C97.13 5.74023 96.49 5.65023 95.88 5.65023C95.16 5.65023 94.58 5.74023 94.13 5.91023C93.68 6.08023 93.36 6.31023 93.15 6.59023C92.94 6.87023 92.84 7.19023 92.84 7.55023C92.84 7.98023 92.99 8.32023 93.29 8.58023C93.59 8.84023 93.98 9.04023 94.47 9.19023C94.96 9.34023 95.5 9.48023 96.1 9.62023C96.7 9.76023 97.3 9.92023 97.89 10.0902C98.48 10.2602 99.02 10.4902 99.51 10.7702C100 11.0502 100.39 11.4302 100.69 11.9102C100.99 12.3902 101.14 13.0002 101.14 13.7302C101.14 14.4602 100.94 15.1702 100.53 15.8002C100.12 16.4302 99.5 16.9402 98.66 17.3202C97.82 17.7002 96.76 17.8902 95.48 17.8902Z" fill="var(--color-white, #ffffff)"/></svg>