<svg width="224" height="22" viewBox="0 0 224 22" fill="none" xmlns="http://www.w3.org/2000/svg"><path d="M33.4999 3.78906H21.3899C18.5799 3.78906 17.3399 5.54906 17.0499 7.21906V3.78906H10.3299C9.3899 3.78906 8.9399 4.06906 8.4899 4.72906L6.6499 7.41906H33.4999V3.78906Z" fill="var(--color-white, #ffffff)"/><path d="M0 17.9691H4.82L10.85 8.21906L6.54 7.78906L0 17.9691Z" fill="var(--color-white, #ffffff)"/><path d="M38.18 3.78906H34.21V7.41906H38.18V3.78906Z" fill="var(--color-white, #ffffff)"/><path d="M63.3798 9.45875L50.9598 8.71875C50.9598 10.6187 52.2098 11.8988 54.3298 12.0688L63.1698 12.7488C63.8498 12.8088 64.2798 12.9787 64.2798 13.5387C64.2798 14.0987 63.7998 14.2788 62.8098 14.2788H50.7598V17.9688H63.0598C66.9398 17.9688 68.6398 16.6088 68.6398 13.5188C68.6398 10.7388 67.1098 9.68875 63.3698 9.46875L63.3798 9.45875Z" fill="var(--color-white, #ffffff)"/><path d="M50.7998 8.72812L46.8898 8.49813V12.6681C46.8898 13.9681 46.2398 14.3681 43.9698 14.3681H40.8498C38.9798 14.3681 38.1898 13.8281 38.1898 12.6681V8.10813L34.2198 7.82812V13.0181H34.1298C33.8998 11.5181 33.3398 9.75813 29.5698 9.49813L17.1498 8.67813C17.1498 10.5781 18.5098 11.7081 20.6398 11.9381L29.2898 12.8181C29.9698 12.8781 30.4798 13.0681 30.4798 13.6381C30.4798 14.2581 29.9698 14.3181 29.1798 14.3181H17.0198V8.64812L13.0498 8.38812V17.9681H29.2098C32.8098 17.9681 33.9698 16.0981 34.1398 14.5381H34.2298C34.6798 17.0081 36.8398 17.9681 40.4998 17.9681H44.5298C48.8098 17.9681 50.8198 16.6681 50.8198 13.5981V8.71812L50.7998 8.72812Z" fill="var(--color-white, #ffffff)"/><path d="M68.3699 7.41906V3.78906H55.0499C52.2799 3.78906 51.0299 5.50906 50.8099 7.15906C50.8099 7.17906 50.8099 7.19906 50.8099 7.21906V3.78906H46.8999V7.41906H68.3899H68.3699Z" fill="var(--color-white, #ffffff)"/><path d="M82.79 17.9395V3.93945H93.01V6.11945H85.39V15.7595H93.29V17.9395H82.79ZM85.19 11.8995V9.75945H92.15V11.8995H85.19Z" fill="var(--color-white, #ffffff)"/><path d="M95.5898 17.9395V3.93945H101.71C103.23 3.93945 104.56 4.22945 105.71 4.81945C106.86 5.40945 107.75 6.21945 108.39 7.25945C109.03 8.29945 109.35 9.52945 109.35 10.9395C109.35 12.3495 109.03 13.5595 108.39 14.6095C107.75 15.6595 106.86 16.4695 105.71 17.0595C104.56 17.6495 103.23 17.9395 101.71 17.9395H95.5898ZM98.1898 15.7395H101.59C102.63 15.7395 103.54 15.5395 104.31 15.1395C105.08 14.7395 105.68 14.1795 106.1 13.4595C106.52 12.7395 106.73 11.8995 106.73 10.9395C106.73 9.97945 106.52 9.11945 106.1 8.40945C105.68 7.69945 105.08 7.13945 104.31 6.73945C103.54 6.33945 102.63 6.13945 101.59 6.13945H98.1898V15.7395Z" fill="var(--color-white, #ffffff)"/><path d="M117.53 18.1395C115.61 18.1395 114.11 17.5995 113.02 16.5195C111.93 15.4395 111.39 13.8795 111.39 11.8395V3.93945H113.99V11.7395C113.99 13.1795 114.3 14.2295 114.92 14.8795C115.54 15.5295 116.42 15.8595 117.55 15.8595C118.68 15.8595 119.56 15.5295 120.17 14.8795C120.78 14.2295 121.09 13.1795 121.09 11.7395V3.93945H123.65V11.8395C123.65 13.8795 123.11 15.4395 122.02 16.5195C120.93 17.5995 119.44 18.1395 117.53 18.1395Z" fill="var(--color-white, #ffffff)"/><path d="M133.17 18.1402C132.1 18.1402 131.11 17.9602 130.2 17.6102C129.29 17.2602 128.49 16.7602 127.82 16.1102C127.15 15.4602 126.62 14.7002 126.25 13.8202C125.88 12.9402 125.69 11.9802 125.69 10.9402C125.69 9.90024 125.88 8.94023 126.25 8.06023C126.62 7.18023 127.15 6.42024 127.83 5.77024C128.51 5.12024 129.3 4.62023 130.21 4.27023C131.12 3.92023 132.11 3.74023 133.19 3.74023C134.34 3.74023 135.38 3.94023 136.33 4.33023C137.28 4.72023 138.08 5.31023 138.73 6.08023L137.05 7.66023C136.54 7.11023 135.98 6.70023 135.35 6.43023C134.72 6.16023 134.04 6.02024 133.31 6.02024C132.58 6.02024 131.91 6.14023 131.3 6.38023C130.69 6.62023 130.17 6.96023 129.72 7.40023C129.27 7.84023 128.93 8.36023 128.68 8.96023C128.43 9.56023 128.31 10.2202 128.31 10.9402C128.31 11.6602 128.43 12.3202 128.68 12.9202C128.93 13.5202 129.27 14.0402 129.72 14.4802C130.17 14.9202 130.69 15.2602 131.3 15.5002C131.91 15.7402 132.58 15.8602 133.31 15.8602C134.04 15.8602 134.72 15.7202 135.35 15.4502C135.98 15.1802 136.54 14.7602 137.05 14.2002L138.73 15.8002C138.08 16.5602 137.28 17.1402 136.33 17.5402C135.38 17.9402 134.33 18.1402 133.17 18.1402Z" fill="var(--color-white, #ffffff)"/><path d="M139.39 17.9395L145.69 3.93945H148.25L154.57 17.9395H151.85L146.43 5.31945H147.47L142.07 17.9395H139.39ZM142.29 14.6995L142.99 12.6595H150.55L151.25 14.6995H142.29Z" fill="var(--color-white, #ffffff)"/><path d="M157.89 17.9395V6.13945H153.25V3.93945H165.13V6.13945H160.49V17.9395H157.89Z" fill="var(--color-white, #ffffff)"/><path d="M167.69 17.9395V3.93945H170.29V17.9395H167.69Z" fill="var(--color-white, #ffffff)"/><path d="M180.03 18.1402C178.94 18.1402 177.93 17.9602 177.01 17.6002C176.09 17.2402 175.29 16.7402 174.61 16.0902C173.93 15.4402 173.4 14.6802 173.03 13.8102C172.66 12.9402 172.47 11.9802 172.47 10.9402C172.47 9.90024 172.66 8.94023 173.03 8.07023C173.4 7.20023 173.93 6.44023 174.61 5.79023C175.29 5.14023 176.09 4.64023 177.01 4.28023C177.93 3.92023 178.93 3.74023 180.01 3.74023C181.09 3.74023 182.11 3.92023 183.02 4.28023C183.93 4.64023 184.73 5.14023 185.41 5.79023C186.09 6.44023 186.62 7.20023 186.99 8.07023C187.36 8.94023 187.55 9.90024 187.55 10.9402C187.55 11.9802 187.36 12.9402 186.99 13.8202C186.62 14.7002 186.09 15.4602 185.41 16.1002C184.73 16.7402 183.93 17.2402 183.02 17.6002C182.11 17.9602 181.11 18.1402 180.03 18.1402ZM180.01 15.8602C180.72 15.8602 181.37 15.7402 181.97 15.5002C182.57 15.2602 183.09 14.9202 183.53 14.4702C183.97 14.0202 184.31 13.5002 184.56 12.9102C184.81 12.3202 184.93 11.6602 184.93 10.9402C184.93 10.2202 184.81 9.56023 184.56 8.97023C184.31 8.38023 183.97 7.86023 183.53 7.41023C183.09 6.96023 182.57 6.62023 181.97 6.38023C181.37 6.14023 180.72 6.02024 180.01 6.02024C179.3 6.02024 178.65 6.14023 178.06 6.38023C177.47 6.62023 176.95 6.96023 176.5 7.41023C176.05 7.86023 175.71 8.38023 175.46 8.97023C175.21 9.56023 175.09 10.2202 175.09 10.9402C175.09 11.6602 175.21 12.3002 175.46 12.9002C175.71 13.5002 176.05 14.0202 176.49 14.4702C176.93 14.9202 177.45 15.2602 178.05 15.5002C178.65 15.7402 179.3 15.8602 180.01 15.8602Z" fill="var(--color-white, #ffffff)"/><path d="M189.71 17.9395V3.93945H191.85L200.63 14.7195H199.57V3.93945H202.15V17.9395H200.01L191.23 7.15945H192.29V17.9395H189.71Z" fill="var(--color-white, #ffffff)"/><path d="M214.91 11.1992L219.02 17.7092L223.13 11.1992H214.91Z" fill="var(--color-white, #ffffff)"/><path d="M214.91 10.3303H223.13L219.02 3.82031L214.91 10.3303Z" fill="var(--color-white, #ffffff)"/><path d="M207.84 0L214.12 9.95L218.5 3.01L216.6 0H207.84Z" fill="var(--color-white, #ffffff)"/><path d="M207.84 21.5301H216.6L218.5 18.5201L214.12 11.5801L207.84 21.5301Z" fill="var(--color-white, #ffffff)"/></svg>