<svg width="94" height="27" viewBox="0 0 94 27" fill="none" xmlns="http://www.w3.org/2000/svg"><path d="M33.5302 0.240234H21.4202C18.6102 0.240234 17.3602 2.00023 17.0802 3.67023V0.240234H10.3602C9.42018 0.240234 8.97018 0.520234 8.52018 1.18023L6.68018 3.87023H33.5402V0.240234H33.5302Z" fill="var(--color-white, #ffffff)"/><path d="M0 14.4202H4.82L10.86 4.67023L6.55 4.24023L0 14.4202Z" fill="var(--color-white, #ffffff)"/><path d="M38.2102 0.240234H34.2402V3.87023H38.2102V0.240234Z" fill="var(--color-white, #ffffff)"/><path d="M63.4198 5.90992L50.9898 5.16992C50.9898 7.06992 52.2398 8.34992 54.3698 8.51992L63.2198 9.19992C63.8998 9.25992 64.3298 9.42992 64.3298 9.98992C64.3298 10.5499 63.8498 10.7299 62.8598 10.7299H50.7998V14.4199H63.1098C66.9998 14.4199 68.6998 13.0599 68.6998 9.96992C68.6998 7.18992 67.1698 6.13992 63.4198 5.90992Z" fill="var(--color-white, #ffffff)"/><path d="M50.8398 5.17953L46.9198 4.94953V9.11953C46.9198 10.4295 46.2698 10.8195 43.9998 10.8195H40.8798C39.0098 10.8195 38.2098 10.2795 38.2098 9.11953V4.54953L34.2398 4.26953V9.45953H34.1498C33.9198 7.95953 33.3598 6.19953 29.5798 5.93953L17.1498 5.11953C17.1498 7.01953 18.5098 8.15953 20.6398 8.37953L29.2898 9.25953C29.9698 9.31953 30.4798 9.50953 30.4798 10.0795C30.4798 10.6995 29.9698 10.7595 29.1698 10.7595H16.9998V5.08953L13.0298 4.82953V14.4195H29.1998C32.7998 14.4195 33.9698 12.5495 34.1398 10.9895H34.2298C34.6798 13.4595 36.8398 14.4195 40.4998 14.4195H44.5298C48.8098 14.4195 50.8298 13.1095 50.8298 10.0495V5.16953L50.8398 5.17953Z" fill="var(--color-white, #ffffff)"/><path d="M68.4199 3.87023V0.240234H55.0899C52.3099 0.240234 51.0599 1.96023 50.8399 3.62023C50.8399 3.64023 50.8399 3.66023 50.8399 3.68023V0.250235H46.9199V3.88023H68.4199V3.87023Z" fill="var(--color-white, #ffffff)"/><path d="M73.6699 0L82.1399 13.42L73.6699 26.84H85.3999L88.0099 22.71L93.8799 13.42L88.0099 4.13L85.3999 0H73.6699Z" fill="var(--asus-green-light, #00b464)"/><path d="M82.1401 13.4199L88.0101 22.7099L93.8801 13.4199H82.1401Z" fill="var(--asus-green-dark, #008264)"/><path d="M82.1401 13.4209H93.8801L88.0101 4.13086L82.1401 13.4209Z" fill="var(--asus-green, #009b64)"/><path d="M0.320059 26.359V19.709H5.17006V20.749H1.55006V25.329H5.30006V26.369H0.310059L0.320059 26.359ZM1.46006 23.489V22.469H4.77006V23.489H1.46006Z" fill="var(--color-white, #ffffff)"/><path d="M7.85986 26.359V19.709H10.7699C11.4899 19.709 12.1299 19.849 12.6699 20.129C13.2099 20.409 13.6399 20.799 13.9399 21.289C14.2399 21.779 14.3999 22.369 14.3999 23.039C14.3999 23.709 14.2499 24.289 13.9399 24.779C13.6399 25.279 13.2099 25.669 12.6699 25.939C12.1299 26.219 11.4899 26.359 10.7699 26.359H7.85986ZM9.09986 25.309H10.7199C11.2099 25.309 11.6399 25.219 12.0099 25.019C12.3799 24.829 12.6599 24.559 12.8599 24.219C13.0599 23.879 13.1599 23.479 13.1599 23.019C13.1599 22.559 13.0599 22.159 12.8599 21.819C12.6599 21.479 12.3799 21.219 12.0099 21.029C11.6399 20.839 11.2099 20.739 10.7199 20.739H9.09986V25.299V25.309Z" fill="var(--color-white, #ffffff)"/><path d="M19.7498 26.449C18.8398 26.449 18.1198 26.189 17.6098 25.679C17.0898 25.169 16.8398 24.429 16.8398 23.459V19.709H18.0798V23.419C18.0798 24.099 18.2298 24.599 18.5198 24.909C18.8098 25.219 19.2298 25.369 19.7698 25.369C20.3098 25.369 20.7198 25.209 21.0198 24.909C21.3098 24.599 21.4598 24.099 21.4598 23.419V19.709H22.6798V23.459C22.6798 24.429 22.4198 25.169 21.9098 25.679C21.3898 26.189 20.6798 26.449 19.7798 26.449H19.7498Z" fill="var(--color-white, #ffffff)"/><path d="M28.6401 26.4494C28.1301 26.4494 27.6601 26.3694 27.2301 26.1994C26.8001 26.0294 26.4201 25.7994 26.1001 25.4894C25.7801 25.1794 25.5301 24.8194 25.3501 24.3994C25.1701 23.9794 25.0801 23.5294 25.0801 23.0294C25.0801 22.5294 25.1701 22.0794 25.3501 21.6594C25.5301 21.2394 25.7801 20.8794 26.1001 20.5694C26.4201 20.2594 26.8001 20.0294 27.2301 19.8594C27.6601 19.6894 28.1301 19.6094 28.6501 19.6094C29.1901 19.6094 29.6901 19.6994 30.1401 19.8894C30.5901 20.0794 30.9701 20.3494 31.2801 20.7194L30.4801 21.4694C30.2401 21.2094 29.9701 21.0194 29.6701 20.8894C29.3701 20.7594 29.0501 20.6894 28.7001 20.6894C28.3501 20.6894 28.0301 20.7494 27.7501 20.8594C27.4701 20.9694 27.2101 21.1394 27.0001 21.3394C26.7901 21.5394 26.6201 21.7994 26.5101 22.0794C26.4001 22.3594 26.3301 22.6794 26.3301 23.0194C26.3301 23.3594 26.3901 23.6794 26.5101 23.9594C26.6301 24.2394 26.7901 24.4894 27.0001 24.6994C27.2101 24.9094 27.4601 25.0694 27.7501 25.1794C28.0401 25.2894 28.3601 25.3494 28.7001 25.3494C29.0401 25.3494 29.3701 25.2894 29.6701 25.1594C29.9701 25.0294 30.2401 24.8294 30.4801 24.5694L31.2801 25.3294C30.9701 25.6894 30.5901 25.9694 30.1401 26.1594C29.6901 26.3494 29.1901 26.4494 28.6401 26.4494Z" fill="var(--color-white, #ffffff)"/><path d="M33.0503 26.359L36.0403 19.709H37.2603L40.2603 26.359H38.9703L36.4003 20.369H36.8903L34.3303 26.359H33.0603H33.0503ZM34.4303 24.819L34.7603 23.849H38.3503L38.6803 24.819H34.4203H34.4303Z" fill="var(--color-white, #ffffff)"/><path d="M43.3099 26.359V20.749H41.1099V19.709H46.7499V20.749H44.5499V26.359H43.3199H43.3099Z" fill="var(--color-white, #ffffff)"/><path d="M49.4199 26.359V19.709H50.6599V26.359H49.4199Z" fill="var(--color-white, #ffffff)"/><path d="M56.7502 26.4494C56.2302 26.4494 55.7502 26.3694 55.3202 26.1894C54.8802 26.0194 54.5002 25.7794 54.1802 25.4694C53.8602 25.1594 53.6102 24.7994 53.4302 24.3894C53.2502 23.9694 53.1602 23.5194 53.1602 23.0294C53.1602 22.5394 53.2502 22.0794 53.4302 21.6694C53.6102 21.2594 53.8602 20.8894 54.1802 20.5894C54.5002 20.2794 54.8802 20.0394 55.3202 19.8694C55.7602 19.6994 56.2302 19.6094 56.7402 19.6094C57.2502 19.6094 57.7402 19.6994 58.1702 19.8694C58.6002 20.0394 58.9802 20.2794 59.3002 20.5894C59.6202 20.8994 59.8702 21.2594 60.0502 21.6694C60.2302 22.0894 60.3202 22.5394 60.3202 23.0294C60.3202 23.5194 60.2302 23.9794 60.0502 24.3994C59.8702 24.8194 59.6202 25.1794 59.3002 25.4794C58.9802 25.7794 58.6002 26.0194 58.1702 26.1894C57.7402 26.3594 57.2602 26.4494 56.7502 26.4494ZM56.7402 25.3694C57.0802 25.3694 57.3902 25.3094 57.6702 25.1994C57.9502 25.0894 58.2002 24.9194 58.4102 24.7094C58.6202 24.4994 58.7802 24.2494 58.9002 23.9694C59.0202 23.6894 59.0802 23.3794 59.0802 23.0294C59.0802 22.6794 59.0202 22.3794 58.9002 22.0894C58.7802 21.7994 58.6202 21.5594 58.4102 21.3494C58.2002 21.1394 57.9502 20.9694 57.6702 20.8594C57.3902 20.7494 57.0702 20.6894 56.7402 20.6894C56.4102 20.6894 56.1002 20.7494 55.8102 20.8594C55.5202 20.9694 55.2802 21.1394 55.0702 21.3494C54.8602 21.5594 54.6902 21.8094 54.5802 22.0894C54.4702 22.3694 54.4002 22.6794 54.4002 23.0294C54.4002 23.3794 54.4602 23.6794 54.5802 23.9594C54.7002 24.2394 54.8602 24.4894 55.0702 24.7094C55.2802 24.9194 55.5302 25.0894 55.8102 25.1994C56.0902 25.3094 56.4102 25.3694 56.7402 25.3694Z" fill="var(--color-white, #ffffff)"/><path d="M62.8101 26.359V19.709H63.8301L68.0001 24.829H67.5001V19.709H68.7301V26.359H67.7101L63.5401 21.239H64.0401V26.359H62.8101Z" fill="var(--color-white, #ffffff)"/></svg>