<svg width="225" height="20" viewBox="0 0 225 20" fill="none" xmlns="http://www.w3.org/2000/svg">
<path d="M20.7103 17.0198C19.8703 17.0198 19.1403 16.9198 18.5203 16.7098C17.9003 16.4998 17.3902 16.2599 16.9802 15.9999C16.5102 15.6999 16.1103 15.3498 15.7803 14.9498L17.2603 13.4698C17.4703 13.7598 17.7503 14.0198 18.0903 14.2598C18.3803 14.4598 18.7402 14.6399 19.1802 14.7999C19.6102 14.9599 20.1302 15.0499 20.7202 15.0499C21.1702 15.0499 21.5603 14.9899 21.9003 14.8799C22.2403 14.7699 22.5303 14.6199 22.7703 14.4299C23.0103 14.2399 23.1802 14.0198 23.3002 13.7698C23.4202 13.5198 23.4802 13.2599 23.4802 12.9799C23.4802 12.5999 23.3802 12.2899 23.1702 12.0399C22.9602 11.7999 22.6803 11.5899 22.3403 11.4199C22.0003 11.2499 21.6102 11.1099 21.1802 10.9899C20.7502 10.8699 20.3003 10.7399 19.8403 10.5999C19.3803 10.4599 18.9302 10.2999 18.5002 10.1099C18.0702 9.91986 17.6803 9.67988 17.3403 9.37988C17.0003 9.07988 16.7203 8.71986 16.5103 8.28986C16.3003 7.85986 16.2003 7.31986 16.2003 6.66986C16.2003 6.15986 16.3103 5.66983 16.5203 5.19983C16.7403 4.72983 17.0503 4.31985 17.4603 3.96985C17.8703 3.61985 18.3603 3.33988 18.9503 3.12988C19.5303 2.92988 20.1902 2.81982 20.9302 2.81982C21.6402 2.81982 22.2602 2.90985 22.8002 3.09985C23.3402 3.27985 23.7902 3.48984 24.1602 3.70984C24.5902 3.96984 24.9603 4.26985 25.2603 4.59985L23.7803 6.07983C23.5703 5.83983 23.3302 5.62983 23.0502 5.44983C22.8102 5.28983 22.5103 5.13983 22.1503 5.00983C21.7903 4.86983 21.3802 4.79987 20.9202 4.79987C20.0802 4.79987 19.4403 4.98986 19.0103 5.35986C18.5803 5.72986 18.3602 6.16986 18.3602 6.66986C18.3602 7.04986 18.4602 7.35986 18.6702 7.60986C18.8802 7.84986 19.1602 8.05986 19.5002 8.22986C19.8402 8.39986 20.2302 8.53985 20.6602 8.65985C21.0902 8.77985 21.5402 8.90986 22.0002 9.03986C22.4602 9.17986 22.9103 9.33985 23.3403 9.52985C23.7703 9.71985 24.1602 9.95983 24.5002 10.2598C24.8402 10.5598 25.1203 10.9199 25.3303 11.3499C25.5403 11.7799 25.6403 12.3198 25.6403 12.9698C25.6403 13.5098 25.5202 14.0198 25.2902 14.5198C25.0602 15.0098 24.7302 15.4399 24.3102 15.8099C23.8902 16.1799 23.3703 16.4699 22.7603 16.6899C22.1603 16.9099 21.4703 17.0198 20.7103 17.0198Z" fill="#231815"/>
<path d="M34.6801 17.0198C33.8101 17.0198 33.0201 16.8798 32.3101 16.5998C31.6001 16.3198 30.9901 15.9198 30.4801 15.4198C29.9701 14.9098 29.5701 14.3098 29.2901 13.6198C29.0101 12.9198 28.8701 12.1598 28.8701 11.3098V3.02979H31.0401V11.3098C31.0401 11.8498 31.1301 12.3498 31.3201 12.8098C31.5001 13.2698 31.7601 13.6698 32.0901 13.9998C32.4201 14.3298 32.8101 14.5898 33.2501 14.7798C33.7001 14.9598 34.1801 15.0598 34.6901 15.0598C35.1801 15.0598 35.6401 14.9598 36.0901 14.7598C36.5401 14.5598 36.9201 14.2998 37.2501 13.9598C37.5801 13.6198 37.8401 13.2298 38.0401 12.7698C38.2401 12.3098 38.3401 11.8198 38.3401 11.3098V3.02979H40.5101V11.3098C40.5101 12.1498 40.3701 12.9198 40.0901 13.6198C39.8101 14.3198 39.4101 14.9198 38.9001 15.4198C38.3901 15.9298 37.7801 16.3198 37.0701 16.5998C36.3301 16.8798 35.5401 17.0198 34.6801 17.0198Z" fill="#231815"/>
<path d="M48.6498 17.0198C47.8098 17.0198 47.0798 16.9198 46.4598 16.7098C45.8398 16.4998 45.3297 16.2599 44.9197 15.9999C44.4497 15.6999 44.0497 15.3498 43.7197 14.9498L45.1998 13.4698C45.4098 13.7598 45.6898 14.0198 46.0298 14.2598C46.3198 14.4598 46.6798 14.6399 47.1198 14.7999C47.5498 14.9599 48.0697 15.0499 48.6597 15.0499C49.1097 15.0499 49.4998 14.9899 49.8398 14.8799C50.1798 14.7699 50.4698 14.6199 50.7098 14.4299C50.9498 14.2399 51.1197 14.0198 51.2397 13.7698C51.3597 13.5198 51.4197 13.2599 51.4197 12.9799C51.4197 12.5999 51.3197 12.2899 51.1097 12.0399C50.8997 11.7999 50.6198 11.5899 50.2798 11.4199C49.9398 11.2499 49.5498 11.1099 49.1198 10.9899C48.6898 10.8699 48.2398 10.7399 47.7798 10.5999C47.3198 10.4599 46.8698 10.2999 46.4398 10.1099C46.0098 9.91986 45.6198 9.67988 45.2798 9.37988C44.9398 9.07988 44.6598 8.71986 44.4498 8.28986C44.2398 7.85986 44.1398 7.31986 44.1398 6.66986C44.1398 6.15986 44.2498 5.66983 44.4598 5.19983C44.6798 4.72983 44.9898 4.31985 45.3998 3.96985C45.8098 3.61985 46.2998 3.33988 46.8898 3.12988C47.4698 2.92988 48.1298 2.81982 48.8698 2.81982C49.5798 2.81982 50.1997 2.90985 50.7397 3.09985C51.2797 3.27985 51.7297 3.48984 52.0997 3.70984C52.5297 3.96984 52.8998 4.26985 53.1998 4.59985L51.7197 6.07983C51.5097 5.83983 51.2697 5.62983 50.9897 5.44983C50.7497 5.28983 50.4498 5.13983 50.0898 5.00983C49.7298 4.86983 49.3197 4.79987 48.8597 4.79987C48.0197 4.79987 47.3798 4.98986 46.9498 5.35986C46.5198 5.72986 46.2997 6.16986 46.2997 6.66986C46.2997 7.04986 46.3997 7.35986 46.6097 7.60986C46.8197 7.84986 47.0998 8.05986 47.4398 8.22986C47.7798 8.39986 48.1697 8.53985 48.5997 8.65985C49.0297 8.77985 49.4798 8.90986 49.9398 9.03986C50.3998 9.17986 50.8498 9.33985 51.2798 9.52985C51.7098 9.71985 52.0998 9.95983 52.4398 10.2598C52.7798 10.5598 53.0598 10.9199 53.2698 11.3499C53.4798 11.7799 53.5798 12.3198 53.5798 12.9698C53.5798 13.5098 53.4597 14.0198 53.2297 14.5198C52.9997 15.0098 52.6698 15.4399 52.2498 15.8099C51.8298 16.1799 51.3098 16.4699 50.6998 16.6899C50.0998 16.9099 49.4098 17.0198 48.6498 17.0198Z" fill="#231815"/>
<path d="M11.14 16.82H13.41L7.89001 3.02002H5.52002L0 16.82H2.27002L3.42999 13.8701H9.97998L11.14 16.82ZM4.25 11.8L6.71002 5.58002L9.16998 11.8H4.25Z" fill="#231815"/>
<path d="M218.8 0L224.98 9.90997L218.8 19.84H210.83L217.01 9.90997L210.83 0H218.8Z" fill="#231815"/>
<path d="M86.5494 9.62006L82.0194 3.02002H84.5794L87.9294 8.05005L91.2794 3.02002H93.8394L89.2994 9.62006L94.2294 16.82H91.6694L87.9194 11.2L84.1694 16.82H81.6094L86.5494 9.62006Z" fill="#231815"/>
<path d="M138.889 16.8198L135.299 11.6098C135.369 11.5898 135.449 11.5698 135.519 11.5498C136.089 11.3198 136.569 11.0098 136.989 10.5998C137.399 10.1998 137.729 9.72982 137.959 9.18982C138.189 8.64982 138.309 8.06977 138.309 7.44977C138.309 6.82977 138.189 6.24979 137.959 5.71979C137.729 5.17979 137.409 4.70981 136.989 4.30981C136.579 3.90981 136.089 3.5898 135.519 3.3598C134.949 3.1298 134.339 3.00977 133.669 3.00977H128.149V16.8098H130.319V13.1498V11.8798V9.90979V9.4798V4.9798H133.669C134.009 4.9798 134.329 5.0398 134.639 5.1698C134.939 5.2998 135.209 5.46982 135.429 5.68982C135.649 5.90982 135.829 6.1798 135.949 6.4798C136.079 6.7798 136.139 7.09977 136.139 7.44977C136.139 7.78977 136.079 8.1098 135.949 8.4198C135.829 8.7198 135.649 8.98978 135.429 9.20978C135.209 9.42978 134.939 9.6098 134.639 9.7298C134.339 9.8598 134.019 9.9198 133.669 9.9198H131.659L133.029 11.8898H133.039L136.439 16.8198H138.889Z" fill="#231815"/>
<path d="M107.84 5.71979C107.61 5.17979 107.29 4.70981 106.87 4.30981C106.46 3.90981 105.97 3.5898 105.4 3.3598C104.83 3.1298 104.22 3.00977 103.55 3.00977H98.0303V16.8098H100.2V13.1498V11.8798V9.90979V9.4798V4.9798H103.55C103.89 4.9798 104.21 5.0398 104.52 5.1698C104.82 5.2998 105.09 5.46982 105.31 5.68982C105.53 5.90982 105.71 6.1798 105.83 6.4798C105.96 6.7798 106.02 7.09977 106.02 7.44977C106.02 7.78977 105.96 8.1098 105.83 8.4198C105.71 8.7198 105.53 8.98978 105.31 9.20978C105.09 9.42978 104.82 9.6098 104.52 9.7298C104.22 9.8598 103.9 9.9198 103.55 9.9198H101.54L102.91 11.8898H103.55C104.22 11.8898 104.84 11.7698 105.4 11.5398C105.96 11.3098 106.45 10.9998 106.87 10.5898C107.28 10.1898 107.61 9.71981 107.84 9.17981C108.07 8.63981 108.19 8.05982 108.19 7.43982C108.19 6.83982 108.07 6.25979 107.84 5.71979Z" fill="#231815"/>
<path d="M77.8398 5.09003V3.02002H68.0898V5.09003V8.88007V10.95V14.7501V16.82H77.8398V14.7501H70.1598V10.95H77.8398V8.88007H70.1598V5.09003H77.8398Z" fill="#231815"/>
<path d="M122.14 5.09003V3.02002H112.38V5.09003V8.88007V10.95V14.7501V16.82H122.14V14.7501H114.45V10.95H122.14V8.88007H114.45V5.09003H122.14Z" fill="#231815"/>
<path d="M152.27 3.02002H141.82V3.04004L143.23 5.09003H145.96V16.82H148.13V5.09003H152.27V3.02002Z" fill="#231815"/>
<path d="M189.16 2.91992H194.68C195.3 2.91992 195.86 3.01991 196.36 3.21991C196.87 3.41991 197.3 3.67989 197.67 4.00989C198.04 4.33989 198.32 4.72992 198.52 5.16992C198.72 5.61992 198.82 6.07989 198.82 6.56989C198.82 7.09989 198.73 7.52993 198.55 7.86993C198.37 8.20993 198.18 8.48991 197.97 8.71991C197.73 8.96991 197.46 9.1699 197.14 9.3299C197.59 9.5099 197.98 9.7599 198.32 10.0799C198.62 10.3399 198.89 10.6899 199.14 11.1099C199.38 11.5399 199.5 12.0599 199.5 12.6799C199.5 13.2199 199.39 13.7299 199.16 14.2299C198.94 14.7199 198.63 15.1499 198.22 15.5199C197.82 15.8899 197.34 16.1799 196.79 16.3999C196.24 16.6199 195.63 16.7299 194.96 16.7299H189.14V2.91992H189.16ZM194.68 8.53992C195.27 8.53992 195.75 8.3699 196.11 8.0199C196.47 7.6699 196.65 7.21992 196.65 6.66992C196.65 6.11992 196.47 5.66989 196.11 5.31989C195.75 4.96989 195.27 4.79993 194.68 4.79993H191.33V8.54993H194.68V8.53992ZM194.98 14.8499C195.68 14.8499 196.24 14.6299 196.69 14.1999C197.13 13.7699 197.35 13.2299 197.35 12.5799C197.35 11.9399 197.13 11.3999 196.69 10.9599C196.25 10.5299 195.68 10.3099 194.98 10.3099H191.33V14.8399H194.98V14.8499Z" fill="#231815"/>
<path d="M178.45 16.9202C177.58 16.9202 176.79 16.7802 176.08 16.5002C175.37 16.2202 174.76 15.8201 174.25 15.3201C173.74 14.8101 173.34 14.2101 173.06 13.5201C172.78 12.8201 172.64 12.0601 172.64 11.2101V2.93018H174.81V11.2101C174.81 11.7501 174.9 12.2501 175.09 12.7101C175.27 13.1701 175.53 13.5701 175.86 13.9001C176.19 14.2301 176.58 14.4902 177.02 14.6802C177.46 14.8702 177.95 14.9601 178.46 14.9601C178.95 14.9601 179.41 14.8602 179.86 14.6602C180.31 14.4602 180.69 14.2002 181.02 13.8602C181.35 13.5202 181.61 13.1302 181.81 12.6702C182.01 12.2102 182.11 11.7201 182.11 11.2101V2.93018H184.28V11.2101C184.28 12.0501 184.14 12.8201 183.86 13.5201C183.58 14.2201 183.18 14.8201 182.67 15.3201C182.16 15.8301 181.55 16.2202 180.84 16.5002C180.11 16.7802 179.32 16.9202 178.45 16.9202Z" fill="#231815"/>
<path d="M157.03 2.95996H159.19V8.73999H165.95V2.95996H168.11V16.68H165.95V10.7H159.19V16.68H157.03V2.95996Z" fill="#231815"/>
</svg>
