<svg width="225" height="20" viewBox="0 0 225 20" fill="none" xmlns="http://www.w3.org/2000/svg">
<path d="M20.7103 17.0198C19.8703 17.0198 19.1403 16.9198 18.5203 16.7098C17.9003 16.4998 17.3902 16.2598 16.9802 15.9998C16.5102 15.6998 16.1103 15.3498 15.7803 14.9498L17.2603 13.4698C17.4703 13.7598 17.7503 14.0198 18.0903 14.2598C18.3803 14.4598 18.7402 14.6398 19.1802 14.7998C19.6102 14.9598 20.1302 15.0498 20.7202 15.0498C21.1702 15.0498 21.5603 14.9898 21.9003 14.8798C22.2403 14.7698 22.5303 14.6198 22.7703 14.4298C23.0103 14.2398 23.1802 14.0198 23.3002 13.7698C23.4202 13.5198 23.4802 13.2598 23.4802 12.9798C23.4802 12.5998 23.3802 12.2898 23.1702 12.0398C22.9602 11.7998 22.6803 11.5898 22.3403 11.4198C22.0003 11.2498 21.6102 11.1098 21.1802 10.9898C20.7502 10.8698 20.3003 10.7398 19.8403 10.5998C19.3803 10.4598 18.9302 10.2998 18.5002 10.1098C18.0702 9.91983 17.6803 9.67982 17.3403 9.37982C17.0003 9.07982 16.7203 8.71983 16.5103 8.28983C16.3003 7.85983 16.2003 7.31983 16.2003 6.66983C16.2003 6.15983 16.3103 5.66983 16.5203 5.19983C16.7403 4.72983 17.0503 4.31982 17.4603 3.96982C17.8703 3.61982 18.3603 3.33982 18.9503 3.12982C19.5303 2.92982 20.1902 2.81982 20.9302 2.81982C21.6402 2.81982 22.2602 2.90982 22.8002 3.09982C23.3402 3.27982 23.7902 3.48981 24.1602 3.70981C24.5902 3.96981 24.9603 4.26982 25.2603 4.59982L23.7803 6.07983C23.5703 5.83983 23.3302 5.62983 23.0502 5.44983C22.8102 5.28983 22.5103 5.13983 22.1503 5.00983C21.7903 4.86983 21.3802 4.79984 20.9202 4.79984C20.0802 4.79984 19.4403 4.98983 19.0103 5.35983C18.5803 5.72983 18.3602 6.16983 18.3602 6.66983C18.3602 7.04983 18.4602 7.35983 18.6702 7.60983C18.8802 7.84983 19.1602 8.05983 19.5002 8.22983C19.8402 8.39983 20.2302 8.53982 20.6602 8.65982C21.0902 8.77982 21.5402 8.90983 22.0002 9.03983C22.4602 9.17983 22.9103 9.33982 23.3403 9.52982C23.7703 9.71982 24.1602 9.95983 24.5002 10.2598C24.8402 10.5598 25.1203 10.9198 25.3303 11.3498C25.5403 11.7798 25.6403 12.3198 25.6403 12.9698C25.6403 13.5098 25.5202 14.0198 25.2902 14.5198C25.0602 15.0098 24.7302 15.4398 24.3102 15.8098C23.8902 16.1798 23.3703 16.4698 22.7603 16.6898C22.1603 16.9098 21.4703 17.0198 20.7103 17.0198Z" fill="#231815"/>
<path d="M34.6801 17.0198C33.8101 17.0198 33.0201 16.8798 32.3101 16.5998C31.6001 16.3198 30.9901 15.9198 30.4801 15.4198C29.9701 14.9098 29.5701 14.3098 29.2901 13.6198C29.0101 12.9198 28.8701 12.1598 28.8701 11.3098V3.02979H31.0401V11.3098C31.0401 11.8498 31.1301 12.3498 31.3201 12.8098C31.5001 13.2698 31.7601 13.6698 32.0901 13.9998C32.4201 14.3298 32.8101 14.5898 33.2501 14.7798C33.6901 14.9698 34.1801 15.0598 34.6901 15.0598C35.1801 15.0598 35.6401 14.9598 36.0901 14.7598C36.5401 14.5598 36.9201 14.2998 37.2501 13.9598C37.5801 13.6198 37.8401 13.2298 38.0401 12.7698C38.2401 12.3098 38.3401 11.8198 38.3401 11.3098V3.02979H40.5101V11.3098C40.5101 12.1498 40.3701 12.9198 40.0901 13.6198C39.8101 14.3198 39.4101 14.9198 38.9001 15.4198C38.3901 15.9298 37.7801 16.3198 37.0701 16.5998C36.3301 16.8798 35.5401 17.0198 34.6801 17.0198Z" fill="#231815"/>
<path d="M48.6498 17.0198C47.8098 17.0198 47.0798 16.9198 46.4598 16.7098C45.8398 16.4998 45.3297 16.2598 44.9197 15.9998C44.4497 15.6998 44.0497 15.3498 43.7197 14.9498L45.1998 13.4698C45.4098 13.7598 45.6898 14.0198 46.0298 14.2598C46.3198 14.4598 46.6798 14.6398 47.1198 14.7998C47.5498 14.9598 48.0697 15.0498 48.6597 15.0498C49.1097 15.0498 49.4998 14.9898 49.8398 14.8798C50.1798 14.7698 50.4698 14.6198 50.7098 14.4298C50.9498 14.2398 51.1197 14.0198 51.2397 13.7698C51.3597 13.5198 51.4197 13.2598 51.4197 12.9798C51.4197 12.5998 51.3197 12.2898 51.1097 12.0398C50.8997 11.7998 50.6198 11.5898 50.2798 11.4198C49.9398 11.2498 49.5498 11.1098 49.1198 10.9898C48.6898 10.8698 48.2398 10.7398 47.7798 10.5998C47.3198 10.4598 46.8698 10.2998 46.4398 10.1098C46.0098 9.91983 45.6198 9.67982 45.2798 9.37982C44.9398 9.07982 44.6598 8.71983 44.4498 8.28983C44.2398 7.85983 44.1398 7.31983 44.1398 6.66983C44.1398 6.15983 44.2498 5.66983 44.4598 5.19983C44.6798 4.72983 44.9898 4.31982 45.3998 3.96982C45.8098 3.61982 46.2998 3.33982 46.8898 3.12982C47.4698 2.92982 48.1298 2.81982 48.8698 2.81982C49.5798 2.81982 50.1997 2.90982 50.7397 3.09982C51.2797 3.28982 51.7297 3.48981 52.0997 3.70981C52.5297 3.96981 52.8998 4.26982 53.1998 4.59982L51.7197 6.07983C51.5097 5.83983 51.2697 5.62983 50.9897 5.44983C50.7497 5.28983 50.4498 5.13983 50.0898 5.00983C49.7298 4.86983 49.3197 4.79984 48.8597 4.79984C48.0197 4.79984 47.3798 4.98983 46.9498 5.35983C46.5198 5.72983 46.2997 6.16983 46.2997 6.66983C46.2997 7.04983 46.3997 7.35983 46.6097 7.60983C46.8197 7.84983 47.0998 8.05983 47.4398 8.22983C47.7798 8.39983 48.1697 8.53982 48.5997 8.65982C49.0297 8.77982 49.4798 8.90983 49.9398 9.03983C50.3998 9.17983 50.8498 9.33982 51.2798 9.52982C51.7098 9.71982 52.0998 9.95983 52.4398 10.2598C52.7798 10.5598 53.0598 10.9198 53.2698 11.3498C53.4798 11.7798 53.5798 12.3198 53.5798 12.9698C53.5798 13.5098 53.4597 14.0198 53.2297 14.5198C52.9997 15.0098 52.6698 15.4398 52.2498 15.8098C51.8298 16.1798 51.3098 16.4698 50.6998 16.6898C50.0998 16.9098 49.4098 17.0198 48.6498 17.0198Z" fill="#231815"/>
<path d="M11.14 16.82H13.41L7.89001 3.02002H5.52002L0 16.82H2.27002L3.42999 13.87H9.97998L11.14 16.82ZM4.25 11.81L6.71002 5.59L9.16998 11.81H4.25Z" fill="#231815"/>
<path d="M218.8 0L224.98 9.91L218.8 19.84H210.83L217.01 9.91L210.83 0H218.8Z" fill="#008DD3"/>
<path d="M86.5494 9.62979L82.0194 3.02979H84.5794L87.9294 8.05978L91.2794 3.02979H93.8394L89.2994 9.62979L94.2294 16.8298H91.6694L87.9194 11.2098L84.1694 16.8298H81.6094L86.5494 9.62979Z" fill="#231815"/>
<path d="M138.889 16.8198L135.299 11.6098C135.369 11.5898 135.449 11.5698 135.519 11.5498C136.089 11.3198 136.569 11.0098 136.989 10.5998C137.399 10.1998 137.729 9.72976 137.959 9.18976C138.189 8.64976 138.309 8.06977 138.309 7.44977C138.309 6.82977 138.189 6.24976 137.959 5.71976C137.729 5.17976 137.409 4.70975 136.989 4.30975C136.579 3.90975 136.089 3.58977 135.519 3.35977C134.949 3.12977 134.339 3.00977 133.669 3.00977H128.149V16.8098H130.319V13.1497V11.8798V9.90976V9.47977V4.97977H133.669C134.009 4.97977 134.329 5.03977 134.639 5.16977C134.949 5.29977 135.209 5.46976 135.429 5.68976C135.649 5.90976 135.829 6.17977 135.949 6.47977C136.079 6.77977 136.139 7.09977 136.139 7.44977C136.139 7.78977 136.079 8.10977 135.949 8.41977C135.829 8.71977 135.649 8.98975 135.429 9.20975C135.209 9.42975 134.939 9.60977 134.639 9.72977C134.339 9.85977 134.019 9.91977 133.669 9.91977H131.659L133.029 11.8898H133.039L136.439 16.8198H138.889Z" fill="#231815"/>
<path d="M107.84 5.71976C107.61 5.17976 107.29 4.70975 106.87 4.30975C106.46 3.90975 105.97 3.58977 105.4 3.35977C104.83 3.12977 104.22 3.00977 103.55 3.00977H98.0303V16.8098H100.2V13.1497V11.8798V9.90976V9.47977V4.97977H103.55C103.89 4.97977 104.21 5.03977 104.52 5.16977C104.83 5.29977 105.09 5.46976 105.31 5.68976C105.53 5.90976 105.71 6.17977 105.83 6.47977C105.96 6.77977 106.02 7.09977 106.02 7.44977C106.02 7.78977 105.96 8.10977 105.83 8.41977C105.71 8.71977 105.53 8.98975 105.31 9.20975C105.09 9.42975 104.82 9.60977 104.52 9.72977C104.22 9.85977 103.9 9.91977 103.55 9.91977H101.54L102.91 11.8898H103.55C104.22 11.8898 104.84 11.7698 105.4 11.5398C105.97 11.3098 106.45 10.9998 106.87 10.5898C107.28 10.1898 107.61 9.71975 107.84 9.17975C108.07 8.63975 108.19 8.05976 108.19 7.43976C108.19 6.83976 108.07 6.25976 107.84 5.71976Z" fill="#231815"/>
<path d="M77.8398 5.09V3.02002H68.0898V5.09V8.89001V10.96V14.75V16.82H77.8398V14.75H70.1598V10.96H77.8398V8.89001H70.1598V5.09H77.8398Z" fill="#231815"/>
<path d="M122.14 5.09V3.02002H112.38V5.09V8.89001V10.96V14.75V16.82H122.14V14.75H114.45V10.96H122.14V8.89001H114.45V5.09H122.14Z" fill="#231815"/>
<path d="M152.27 3.02002H141.82V3.04001L143.23 5.09H145.96V16.82H148.13V5.09H152.27V3.02002Z" fill="#231815"/>
<path d="M189.16 2.91992H194.68C195.3 2.91992 195.86 3.01991 196.36 3.21991C196.87 3.41991 197.3 3.67992 197.67 4.00992C198.04 4.33992 198.32 4.72992 198.52 5.16992C198.72 5.61992 198.82 6.07992 198.82 6.56992C198.82 7.09992 198.73 7.5299 198.55 7.8699C198.37 8.2099 198.18 8.48991 197.97 8.71991C197.73 8.96991 197.46 9.16993 197.14 9.32993C197.59 9.50993 197.98 9.75993 198.32 10.0799C198.62 10.3399 198.89 10.6899 199.14 11.1099C199.38 11.5399 199.5 12.0599 199.5 12.6799C199.5 13.2199 199.39 13.7299 199.16 14.2299C198.94 14.7199 198.63 15.1499 198.22 15.5199C197.82 15.8899 197.34 16.1799 196.79 16.3999C196.24 16.6199 195.63 16.7299 194.96 16.7299H189.14V2.91992H189.16ZM194.68 8.53992C195.27 8.53992 195.75 8.36993 196.11 8.01993C196.47 7.66993 196.65 7.21992 196.65 6.66992C196.65 6.11992 196.47 5.66992 196.11 5.31992C195.75 4.96992 195.27 4.79993 194.68 4.79993H191.33V8.54993H194.68V8.53992ZM194.98 14.8499C195.68 14.8499 196.24 14.6299 196.69 14.1999C197.13 13.7699 197.35 13.2299 197.35 12.5799C197.35 11.9399 197.13 11.3999 196.69 10.9599C196.25 10.5299 195.68 10.3099 194.98 10.3099H191.33V14.8399H194.98V14.8499Z" fill="#231815"/>
<path d="M178.45 16.9197C177.58 16.9197 176.79 16.7797 176.08 16.4997C175.37 16.2197 174.76 15.8197 174.25 15.3197C173.74 14.8097 173.34 14.2097 173.06 13.5197C172.78 12.8197 172.64 12.0597 172.64 11.2097V2.92969H174.81V11.2097C174.81 11.7497 174.9 12.2497 175.09 12.7097C175.27 13.1697 175.53 13.5697 175.86 13.8997C176.19 14.2297 176.58 14.4897 177.02 14.6797C177.47 14.8597 177.95 14.9597 178.46 14.9597C178.95 14.9597 179.41 14.8597 179.86 14.6597C180.31 14.4597 180.69 14.1997 181.02 13.8597C181.35 13.5197 181.61 13.1297 181.81 12.6697C182.01 12.2097 182.11 11.7197 182.11 11.2097V2.92969H184.28V11.2097C184.28 12.0497 184.14 12.8197 183.86 13.5197C183.58 14.2197 183.18 14.8197 182.67 15.3197C182.16 15.8297 181.55 16.2197 180.84 16.4997C180.11 16.7797 179.32 16.9197 178.45 16.9197Z" fill="#231815"/>
<path d="M157.03 2.95996H159.19V8.73999H165.95V2.95996H168.11V16.68H165.95V10.7H159.19V16.68H157.03V2.95996Z" fill="#231815"/>
</svg>
