<svg width="32" height="32" viewBox="0 0 32 32" fill="none" xmlns="http://www.w3.org/2000/svg">
<g clip-path="url(#clip_line_default_g)">
<mask id="clip_line_default_m_1" style="mask-type:luminance" maskUnits="userSpaceOnUse" x="0" y="0" width="32" height="32">
<path d="M32 0H0V32H32V0Z" fill="white"/>
</mask>
<g mask="url(#clip_line_default_g_1)">
<mask id="clip_line_default_m_2" style="mask-type:luminance" maskUnits="userSpaceOnUse" x="0" y="0" width="32" height="32">
<path d="M32 0H0V32H32V0Z" fill="white"/>
</mask>
<g mask="url(#clip_line_default_g_2)">
<mask id="clip_line_default_m_3" style="mask-type:luminance" maskUnits="userSpaceOnUse" x="0" y="0" width="32" height="32">
<path d="M0 0H32V32H0V0Z" fill="white"/>
</mask>
<g mask="url(#clip_line_default_g_3)">
<path d="M26.1463 0H5.85366C2.62077 0 0 2.62077 0 5.85366V26.1463C0 29.3792 2.62077 32 5.85366 32H26.1463C29.3792 32 32 29.3792 32 26.1463V5.85366C32 2.62077 29.3792 0 26.1463 0Z" fill="var(--color-line, #06C755)"/>
<path d="M26.6654 14.4923C26.6654 9.71897 21.8801 5.83496 15.9987 5.83496C10.1174 5.83496 5.33203 9.71897 5.33203 14.4923C5.33203 18.7723 9.12806 22.359 14.2547 23.0336C14.6014 23.1083 15.0747 23.2629 15.188 23.5603C15.271 23.8751 15.2829 24.2044 15.2227 24.5243L15.0707 25.4376C15.024 25.7043 14.8561 26.4923 15.9947 26.0123C19.0869 24.3846 21.9135 22.2957 24.3774 19.8176C25.8056 18.4058 26.626 16.4922 26.6641 14.4843" fill="white"/>
<path d="M23.1162 17.2494H20.1122C20.0581 17.2494 20.0062 17.2279 19.968 17.1897C19.9297 17.1513 19.9082 17.0995 19.9082 17.0453V12.3974C19.9082 12.3433 19.9297 12.2914 19.968 12.2531C20.0062 12.2149 20.0581 12.1934 20.1122 12.1934H23.1095C23.1637 12.1934 23.2155 12.2149 23.2538 12.2531C23.2921 12.2914 23.3135 12.3433 23.3135 12.3974V13.1534C23.3135 13.2074 23.2921 13.2594 23.2538 13.2976C23.2155 13.3358 23.1637 13.3574 23.1095 13.3574H21.0722V14.1427H23.1095C23.1637 14.1427 23.2155 14.1642 23.2538 14.2025C23.2921 14.2407 23.3135 14.2926 23.3135 14.3467V15.1027C23.3135 15.1568 23.2921 15.2087 23.2538 15.2469C23.2155 15.2852 23.1637 15.3067 23.1095 15.3067H21.0722V16.0921H23.1095C23.1637 16.0921 23.2155 16.1135 23.2538 16.1518C23.2921 16.19 23.3135 16.2419 23.3135 16.2961V17.0521C23.3135 17.1061 23.2921 17.158 23.2538 17.1963C23.2155 17.2345 23.1637 17.256 23.1095 17.256" fill="var(--color-line, #06C755)"/>
<path d="M12.0295 17.2495C12.0836 17.2495 12.1354 17.228 12.1738 17.1897C12.212 17.1515 12.2335 17.0996 12.2335 17.0455V16.2895C12.2335 16.2354 12.212 16.1835 12.1738 16.1453C12.1354 16.107 12.0836 16.0855 12.0295 16.0855H9.99214V12.3895C9.99214 12.3354 9.97068 12.2835 9.93244 12.2453C9.89412 12.207 9.84229 12.1855 9.78813 12.1855H9.03214C8.97806 12.1855 8.92615 12.207 8.88791 12.2453C8.84967 12.2835 8.82812 12.3354 8.82812 12.3895V17.0442C8.82812 17.0982 8.84967 17.1502 8.88791 17.1884C8.92615 17.2267 8.97806 17.2482 9.03214 17.2482L12.0295 17.2495Z" fill="var(--color-line, #06C755)"/>
<path d="M13.8334 12.1855H13.0774C13.0507 12.1855 13.0241 12.1908 12.9994 12.201C12.9746 12.2113 12.9522 12.2263 12.9332 12.2453C12.9142 12.2642 12.8992 12.2867 12.889 12.3114C12.8787 12.3362 12.8734 12.3627 12.8734 12.3895V17.0455C12.8734 17.0723 12.8787 17.0988 12.889 17.1235C12.8992 17.1484 12.9142 17.1708 12.9332 17.1897C12.9522 17.2087 12.9746 17.2238 12.9994 17.234C13.0241 17.2442 13.0507 17.2495 13.0774 17.2495H13.8334C13.8603 17.2495 13.8868 17.2442 13.9115 17.234C13.9363 17.2238 13.9588 17.2087 13.9777 17.1897C13.9966 17.1708 14.0117 17.1484 14.0219 17.1235C14.0322 17.0988 14.0374 17.0723 14.0374 17.0455V12.3895C14.0374 12.3627 14.0322 12.3362 14.0219 12.3114C14.0117 12.2867 13.9966 12.2642 13.9777 12.2453C13.9588 12.2263 13.9363 12.2113 13.9115 12.201C13.8868 12.1908 13.8603 12.1855 13.8334 12.1855Z" fill="var(--color-line, #06C755)"/>
<path d="M18.9837 12.1851H18.2277C18.2009 12.1851 18.1744 12.1904 18.1496 12.2006C18.1249 12.2109 18.1024 12.2259 18.0835 12.2449C18.0645 12.2638 18.0495 12.2863 18.0392 12.3111C18.0289 12.3358 18.0237 12.3623 18.0237 12.3891V15.1545L15.8903 12.2771L15.8744 12.2558L15.8624 12.2425L15.8517 12.2331L15.841 12.2251H14.969C14.9149 12.2251 14.863 12.2466 14.8248 12.2848C14.7866 12.3231 14.765 12.375 14.765 12.4292V17.0451C14.765 17.0992 14.7866 17.1511 14.8248 17.1893C14.863 17.2276 14.9149 17.2491 14.969 17.2491H15.725C15.7791 17.2491 15.831 17.2276 15.8692 17.1893C15.9076 17.1511 15.929 17.0992 15.929 17.0451V14.2798L18.0623 17.1598C18.0765 17.1796 18.0942 17.1968 18.1143 17.2104L18.1277 17.2185H18.1624C18.1798 17.223 18.1977 17.2253 18.2157 17.2251H18.9677C19.0218 17.2251 19.0737 17.2036 19.1119 17.1654C19.1502 17.1271 19.1717 17.0752 19.1717 17.0212V12.3651C19.1717 12.311 19.1502 12.2592 19.1119 12.2208C19.0737 12.1826 19.0218 12.1611 18.9677 12.1611" fill="var(--color-line, #06C755)"/>
</g>
</g>
</g>
</g>
<defs>
<clipPath id="clip_line_default">
<rect width="32" height="32" fill="white"/>
</clipPath>
</defs>
</svg>
