<svg width="20" height="20" viewBox="0 0 20 20" fill="none" xmlns="http://www.w3.org/2000/svg">
<g clip-path="url(#clip_line_sm_g)">
<mask id="clip_line_sm_m_1" style="mask-type:luminance" maskUnits="userSpaceOnUse" x="0" y="0" width="20" height="20">
<path d="M20 0H0V20H20V0Z" fill="white"/>
</mask>
<g mask="url(#clip_line_sm_g_1)">
<mask id="clip_line_sm_m_2" style="mask-type:luminance" maskUnits="userSpaceOnUse" x="0" y="0" width="20" height="20">
<path d="M20 0H0V20H20V0Z" fill="white"/>
</mask>
<g mask="url(#clip_line_sm_g_2)">
<mask id="clip_line_sm_m_3" style="mask-type:luminance" maskUnits="userSpaceOnUse" x="0" y="0" width="20" height="20">
<path d="M0 0H20V20H0V0Z" fill="white"/>
</mask>
<g mask="url(#clip_line_sm_g_3)">
<path d="M16.3415 0H3.65854C1.63798 0 0 1.63798 0 3.65854V16.3415C0 18.362 1.63798 20 3.65854 20H16.3415C18.362 20 20 18.362 20 16.3415V3.65854C20 1.63798 18.362 0 16.3415 0Z" fill="var(--color-line, #06C755)"/>
<path d="M16.6659 9.0573C16.6659 6.07399 13.675 3.64648 9.99918 3.64648C6.32338 3.64648 3.33252 6.07399 3.33252 9.0573C3.33252 11.7323 5.70504 13.974 8.90918 14.3956C9.12587 14.4423 9.42167 14.539 9.4925 14.7248C9.5444 14.9215 9.55182 15.1274 9.51421 15.3273L9.41918 15.8981C9.39001 16.0648 9.28504 16.5573 9.99669 16.2573C11.9293 15.24 13.696 13.9345 15.2359 12.3856C16.1285 11.5033 16.6413 10.3073 16.665 9.05233" fill="white"/>
<path d="M14.4477 10.7811H12.5701C12.5363 10.7811 12.5039 10.7677 12.48 10.7438C12.4561 10.7198 12.4426 10.6874 12.4426 10.6536V7.74861C12.4426 7.7148 12.4561 7.68236 12.48 7.65846C12.5039 7.63456 12.5363 7.62109 12.5701 7.62109H14.4435C14.4773 7.62109 14.5097 7.63456 14.5336 7.65846C14.5576 7.68236 14.571 7.7148 14.571 7.74861V8.22109C14.571 8.2549 14.5576 8.28734 14.5336 8.31124C14.5097 8.33514 14.4773 8.34861 14.4435 8.34861H13.1701V8.83944H14.4435C14.4773 8.83944 14.5097 8.85285 14.5336 8.8768C14.5576 8.9007 14.571 8.93309 14.571 8.96695V9.43944C14.571 9.47324 14.5576 9.50568 14.5336 9.52958C14.5097 9.55348 14.4773 9.56695 14.4435 9.56695H13.1701V10.0578H14.4435C14.4773 10.0578 14.5097 10.0712 14.5336 10.0951C14.5576 10.119 14.571 10.1514 14.571 10.1853V10.6578C14.571 10.6916 14.5576 10.724 14.5336 10.7479C14.5097 10.7718 14.4773 10.7852 14.4435 10.7852" fill="var(--color-line, #06C755)"/>
<path d="M7.51841 10.7812C7.55226 10.7812 7.58465 10.7678 7.6086 10.7438C7.63251 10.7199 7.64592 10.6875 7.64592 10.6537V10.1812C7.64592 10.1474 7.63251 10.1149 7.6086 10.091C7.58465 10.0671 7.55226 10.0537 7.51841 10.0537H6.24509V7.74367C6.24509 7.70987 6.23168 7.67743 6.20777 7.65353C6.18382 7.62963 6.15143 7.61621 6.11758 7.61621H5.64509C5.61129 7.61621 5.57885 7.62963 5.55494 7.65353C5.53104 7.67743 5.51758 7.70987 5.51758 7.74367V10.6528C5.51758 10.6866 5.53104 10.7191 5.55494 10.743C5.57885 10.7669 5.61129 10.7804 5.64509 10.7804L7.51841 10.7812Z" fill="var(--color-line, #06C755)"/>
<path d="M8.6459 7.61621H8.17341C8.15668 7.61621 8.14009 7.61948 8.12463 7.62587C8.10917 7.63231 8.09512 7.64167 8.08326 7.65353C8.07141 7.66538 8.06204 7.67943 8.05565 7.69489C8.04921 7.71036 8.0459 7.72694 8.0459 7.74367V10.6537C8.0459 10.6705 8.04921 10.687 8.05565 10.7025C8.06204 10.718 8.07141 10.732 8.08326 10.7438C8.09512 10.7557 8.10917 10.7651 8.12463 10.7715C8.14009 10.7779 8.15668 10.7812 8.17341 10.7812H8.6459C8.66268 10.7812 8.67926 10.7779 8.69473 10.7715C8.71019 10.7651 8.72424 10.7557 8.73609 10.7438C8.7479 10.732 8.75731 10.718 8.7637 10.7025C8.77014 10.687 8.77341 10.6705 8.77341 10.6537V7.74367C8.77341 7.72694 8.77014 7.71036 8.7637 7.69489C8.75731 7.67943 8.7479 7.66538 8.73609 7.65353C8.72424 7.64167 8.71019 7.63231 8.69473 7.62587C8.67926 7.61948 8.66268 7.61621 8.6459 7.61621Z" fill="var(--color-line, #06C755)"/>
<path d="M11.8648 7.61556H11.3923C11.3756 7.61556 11.359 7.61888 11.3435 7.62527C11.3281 7.63171 11.314 7.64107 11.3022 7.65293C11.2903 7.66478 11.2809 7.67883 11.2745 7.69429C11.2681 7.70976 11.2648 7.72634 11.2648 7.74307V9.47142L9.93147 7.67307L9.92152 7.65976L9.914 7.65142L9.90732 7.64556L9.90064 7.64059H9.35566C9.32186 7.64059 9.28942 7.654 9.26552 7.6779C9.24161 7.70181 9.22815 7.73424 9.22815 7.7681V10.6531C9.22815 10.6869 9.24161 10.7193 9.26552 10.7432C9.28942 10.7671 9.32186 10.7806 9.35566 10.7806H9.82815C9.86195 10.7806 9.89439 10.7671 9.9183 10.7432C9.94225 10.7193 9.95566 10.6869 9.95566 10.6531V8.92473L11.289 10.7247C11.2979 10.7371 11.3089 10.7479 11.3215 10.7564L11.3298 10.7614H11.3515C11.3624 10.7642 11.3736 10.7657 11.3848 10.7656H11.8548C11.8886 10.7656 11.9211 10.7521 11.945 10.7282C11.9689 10.7043 11.9823 10.6719 11.9823 10.6381V7.72805C11.9823 7.69424 11.9689 7.66185 11.945 7.6379C11.9211 7.614 11.8886 7.60059 11.8548 7.60059" fill="var(--color-line, #06C755)"/>
</g>
</g>
</g>
</g>
<defs>
<clipPath id="clip_line_sm">
<rect width="20" height="20" fill="white"/>
</clipPath>
</defs>
</svg>
