<svg width="20" height="20" viewBox="0 0 20 20" fill="none" xmlns="http://www.w3.org/2000/svg">
<rect width="20" height="20" rx="8" fill="white"/>
<path fill-rule="evenodd" clip-rule="evenodd" d="M16.3413 0C18.3618 0 20 1.63814 20 3.65869V16.3418C19.9999 18.3622 18.3618 20 16.3413 20H3.65869C1.63821 20 0.000119195 18.3622 0 16.3418V3.65869C0 1.63814 1.63814 0 3.65869 0H16.3413ZM11.8657 6.1333C11.0948 6.13335 10.4664 6.60202 10.0713 6.60205C9.64368 6.60205 9.07992 6.15918 8.4126 6.15918C7.14286 6.15924 5.85358 7.21441 5.85352 9.20703C5.85352 10.4443 6.33329 11.7535 6.92285 12.6001C7.42814 13.3164 7.86857 13.9023 8.50342 13.9023C9.13184 13.9023 9.41044 13.479 10.1943 13.479C10.9912 13.479 11.1661 13.8896 11.8657 13.8896C12.5525 13.8896 13.0127 13.2511 13.4468 12.626C13.9326 11.9097 14.1335 11.2064 14.1465 11.1738C14.1011 11.1608 12.7857 10.6204 12.7856 9.10303C12.7856 7.78756 13.8225 7.19497 13.8809 7.14941C13.1941 6.15951 12.1508 6.1333 11.8657 6.1333ZM12.0215 3.65869C11.5097 3.67823 10.8942 4.00372 10.5249 4.43994C10.2334 4.77206 9.96782 5.29315 9.96777 5.82715C9.96777 5.90529 9.98038 5.98372 9.98682 6.00977C10.0192 6.01625 10.0712 6.02246 10.123 6.02246C10.583 6.02246 11.1595 5.71014 11.5029 5.29346C11.8139 4.91575 12.0405 4.38783 12.0405 3.86035C12.0405 3.7888 12.0344 3.71724 12.0215 3.65869Z" fill="var(--color-apple, #000000)"/>
</svg>
