<svg width="24" height="24" viewBox="0 0 24 24" fill="none" xmlns="http://www.w3.org/2000/svg">
<rect width="24" height="24" rx="8" fill="white"/>
<path fill-rule="evenodd" clip-rule="evenodd" d="M19.6096 0C22.0342 0 24 1.96576 24 4.39043V19.6102C23.9999 22.0347 22.0341 24 19.6096 24H4.39043C1.96585 24 0.000143033 22.0347 0 19.6102V4.39043C0 1.96576 1.96576 0 4.39043 0H19.6096ZM14.2389 7.35996C13.3138 7.36001 12.5597 7.92242 12.0855 7.92246C11.5724 7.92246 10.8959 7.39102 10.0951 7.39102C8.57143 7.39109 7.0243 8.65729 7.02422 11.0484C7.02422 12.5332 7.59995 14.1042 8.30742 15.1201C8.91377 15.9797 9.44228 16.6828 10.2041 16.6828C10.9582 16.6828 11.2925 16.1748 12.2332 16.1748C13.1894 16.1748 13.3993 16.6675 14.2389 16.6676C15.0629 16.6676 15.6153 15.9014 16.1361 15.1512C16.7191 14.2916 16.9602 13.4477 16.9758 13.4086C16.9213 13.393 15.3428 12.7445 15.3428 10.9236C15.3428 9.34508 16.587 8.63397 16.657 8.5793C15.833 7.39141 14.581 7.35996 14.2389 7.35996ZM14.4258 4.39043C13.8116 4.41387 13.073 4.80446 12.6299 5.32793C12.28 5.72647 11.9614 6.35178 11.9613 6.99258C11.9613 7.08635 11.9765 7.18046 11.9842 7.21172C12.023 7.2195 12.0855 7.22695 12.1477 7.22695C12.6996 7.22695 13.3914 6.85217 13.8035 6.35215C14.1767 5.8989 14.4486 5.2654 14.4486 4.63242C14.4486 4.54656 14.4413 4.46069 14.4258 4.39043Z" fill="var(--color-apple, #000000)"/>
</svg>
