<svg xmlns="http://www.w3.org/2000/svg" width="122" height="22" fill="none"><path fill="var(--asus-blue-light, #0096D2)" d="m105.83 0 6.71 10.63-6.71 10.62h9.29l2.07-3.27 4.64-7.35-4.64-7.36L115.12 0z"/><path fill="var(--asus-blue-dark, #0064d2)" d="m112.54 10.63 4.65 7.35 4.64-7.35z"/><path fill="var(--asus-blue, #007dd2)" d="M112.54 10.63h9.29l-4.64-7.36z"/><path fill="var(--asus-black, #000000)" d="M0 17.69v-14h6.56q2.52 0 3.84.99c.88.66 1.32 1.54 1.32 2.65 0 .75-.17 1.38-.52 1.91s-.81.93-1.39 1.22-1.21.43-1.89.43l.36-.72c.79 0 1.49.14 2.12.43s1.12.7 1.49 1.25.55 1.23.55 2.04c0 1.2-.46 2.13-1.38 2.8s-2.29 1-4.1 1zm2.6-2.04h4.2c.97 0 1.72-.16 2.24-.48s.78-.83.78-1.54-.26-1.2-.78-1.53-1.27-.49-2.24-.49H2.4V9.59h3.88c.91 0 1.6-.16 2.09-.48s.73-.8.73-1.44-.24-1.14-.73-1.46-1.18-.48-2.09-.48H2.6zm18.44 2.24c-1.92 0-3.42-.54-4.51-1.62s-1.63-2.64-1.63-4.68v-7.9h2.6v7.8c0 1.44.31 2.49.93 3.14s1.5.98 2.63.98 2.01-.33 2.62-.98.92-1.7.92-3.14v-7.8h2.56v7.9c0 2.04-.54 3.6-1.63 4.68s-2.58 1.62-4.49 1.62m13.9 0c-1.09 0-2.14-.16-3.14-.47s-1.79-.72-2.38-1.21l.9-2.02c.56.44 1.25.81 2.08 1.1s1.67.44 2.54.44c.73 0 1.33-.08 1.78-.24s.79-.38 1-.65.32-.58.32-.93c0-.43-.15-.77-.46-1.03s-.7-.47-1.19-.62-1.03-.3-1.62-.43-1.19-.29-1.78-.47-1.13-.41-1.62-.7-.88-.67-1.19-1.15-.46-1.09-.46-1.84.2-1.46.61-2.09 1.03-1.14 1.86-1.52 1.89-.57 3.17-.57c.84 0 1.67.11 2.5.32s1.55.52 2.16.92l-.82 2.02c-.63-.37-1.27-.65-1.94-.83a7.4 7.4 0 0 0-1.92-.27c-.72 0-1.3.09-1.75.26s-.77.4-.98.68-.31.6-.31.96c0 .43.15.77.45 1.03s.69.46 1.18.61 1.03.29 1.63.43 1.2.3 1.79.47 1.13.4 1.62.68.88.66 1.18 1.14.45 1.09.45 1.82-.2 1.44-.61 2.07-1.03 1.14-1.87 1.52q-1.26.57-3.18.57m8.44-.2v-14h2.6v14zm5.77 0v-14h2.14l8.78 10.78h-1.06V3.69h2.58v14h-2.14L50.67 6.91h1.06v10.78zm15.61 0v-14h10.22v2.18h-7.62v9.64h7.9v2.18zm2.39-6.04V9.51h6.96v2.14zm15.55 6.24c-1.09 0-2.14-.16-3.14-.47s-1.79-.72-2.38-1.21l.9-2.02c.56.44 1.25.81 2.08 1.1s1.67.44 2.54.44c.73 0 1.33-.08 1.78-.24s.79-.38 1-.65.32-.58.32-.93c0-.43-.15-.77-.46-1.03s-.7-.47-1.19-.62-1.03-.3-1.62-.43-1.19-.29-1.78-.47-1.13-.41-1.62-.7-.88-.67-1.19-1.15-.46-1.09-.46-1.84.2-1.46.61-2.09 1.03-1.14 1.86-1.52 1.89-.57 3.17-.57c.84 0 1.67.11 2.5.32s1.55.52 2.16.92l-.82 2.02c-.63-.37-1.27-.65-1.94-.83a7.4 7.4 0 0 0-1.92-.27c-.72 0-1.3.09-1.75.26s-.77.4-.98.68-.31.6-.31.96c0 .43.15.77.45 1.03s.69.46 1.18.61 1.03.29 1.63.43 1.2.3 1.79.47 1.13.4 1.62.68.88.66 1.18 1.14.45 1.09.45 1.82-.2 1.44-.61 2.07-1.03 1.14-1.87 1.52q-1.26.57-3.18.57m12.78 0c-1.09 0-2.14-.16-3.14-.47s-1.79-.72-2.38-1.21l.9-2.02c.56.44 1.25.81 2.08 1.1s1.67.44 2.54.44c.73 0 1.33-.08 1.78-.24s.79-.38 1-.65.32-.58.32-.93c0-.43-.15-.77-.46-1.03s-.7-.47-1.19-.62-1.03-.3-1.62-.43-1.19-.29-1.78-.47-1.13-.41-1.62-.7-.88-.67-1.19-1.15-.46-1.09-.46-1.84.2-1.46.61-2.09 1.03-1.14 1.86-1.52 1.89-.57 3.17-.57c.84 0 1.67.11 2.5.32s1.55.52 2.16.92l-.82 2.02c-.63-.37-1.27-.65-1.94-.83a7.4 7.4 0 0 0-1.92-.27c-.72 0-1.3.09-1.75.26s-.77.4-.98.68-.31.6-.31.96c0 .43.15.77.45 1.03s.69.46 1.18.61 1.03.29 1.63.43 1.2.3 1.79.47 1.13.4 1.62.68.88.66 1.18 1.14.45 1.09.45 1.82-.2 1.44-.61 2.07-1.03 1.14-1.87 1.52q-1.26.57-3.18.57"/></svg>