<svg xmlns="http://www.w3.org/2000/svg" width="95" height="27" fill="none"><path fill="var(--color-white, #ffffff)" d="M33.54.36H21.43c-2.81 0-4.06 1.76-4.34 3.43V.36h-6.72c-.94 0-1.39.28-1.84.94L6.69 3.99h26.86V.36zM0 14.54h4.83l6.04-9.76-4.31-.42zM38.22.36h-3.97v3.63h3.97zm25.21 5.67L51 5.29c0 1.9 1.25 3.18 3.38 3.35l8.85.68c.68.06 1.11.23 1.11.79s-.48.74-1.47.74H50.81v3.69h12.31c3.89 0 5.59-1.36 5.59-4.45 0-2.78-1.53-3.83-5.28-4.06"/><path fill="var(--color-white, #ffffff)" d="m50.84 5.289-3.92-.23v4.17c0 1.31-.65 1.7-2.92 1.7h-3.12c-1.87 0-2.67-.54-2.67-1.7v-4.57l-3.97-.28v5.19h-.09c-.23-1.5-.79-3.26-4.57-3.52l-12.43-.82c0 1.9 1.36 3.04 3.49 3.26l8.65.88c.68.06 1.19.25 1.19.82 0 .62-.51.68-1.31.68H17v-5.67l-3.97-.26v9.59H29.2c3.6 0 4.77-1.87 4.94-3.43h.09c.45 2.47 2.61 3.43 6.27 3.43h4.03c4.28 0 6.3-1.31 6.3-4.37v-4.88zM68.43 3.99V.36H55.1c-2.78 0-4.03 1.72-4.25 3.38v.06V.37h-3.92V4h21.5z"/><path fill="var(--asus-blue-light, #0096D2)" d="m74.13 0 8.5 13.45-8.5 13.46H85.9l2.61-4.14 5.88-9.32-5.88-9.31L85.9 0z"/><path fill="var(--asus-blue-dark, #0064d2)" d="m82.63 13.45 5.88 9.32 5.88-9.32z"/><path fill="var(--asus-blue, #007dd2)" d="M82.63 13.45h11.76l-5.88-9.31z"/><path fill="var(--color-white, #ffffff)" d="M.47 26.37v-6.65h3.12c.8 0 1.41.16 1.82.47s.63.73.63 1.26c0 .35-.08.66-.25.91s-.38.44-.66.58-.57.2-.9.2l.17-.34c.37 0 .71.07 1.01.2.3.14.53.33.71.59.17.26.26.58.26.97 0 .57-.22 1.01-.66 1.33s-1.09.47-1.95.47H.46zm1.23-.96h2c.46 0 .82-.08 1.06-.23.25-.15.37-.4.37-.73s-.12-.57-.37-.73-.6-.23-1.06-.23H1.61v-.96h1.84c.43 0 .76-.08.99-.23s.35-.38.35-.68-.12-.54-.35-.69-.56-.23-.99-.23H1.7zm11.55 1.06c-.91 0-1.63-.26-2.14-.77-.52-.51-.77-1.25-.77-2.22v-3.75h1.23v3.71c0 .68.15 1.18.44 1.49s.71.46 1.25.46.95-.16 1.24-.46c.29-.31.44-.81.44-1.49v-3.71h1.22v3.75c0 .97-.26 1.71-.77 2.22-.52.51-1.23.77-2.13.77zm9.4 0c-.52 0-1.02-.07-1.49-.22-.48-.15-.85-.34-1.13-.58l.43-.96c.27.21.6.38.99.52s.79.21 1.21.21c.35 0 .63-.04.85-.11s.37-.18.48-.31c.1-.13.15-.28.15-.44 0-.2-.07-.37-.22-.49s-.33-.22-.57-.29c-.23-.07-.49-.14-.77-.2s-.56-.14-.85-.22c-.28-.08-.54-.2-.77-.33a1.76 1.76 0 0 1-.57-.55c-.15-.23-.22-.52-.22-.87s.1-.69.29-.99.49-.54.88-.72c.4-.18.9-.27 1.51-.27.4 0 .79.05 1.19.15s.73.25 1.03.44l-.39.96c-.3-.18-.6-.31-.92-.39s-.62-.13-.91-.13c-.34 0-.62.04-.83.12s-.37.19-.47.32-.15.29-.15.46c0 .2.07.37.21.49s.33.22.56.29.49.14.77.2.57.14.85.22.54.19.77.32.42.31.56.54.21.52.21.86-.1.68-.29.98-.49.54-.89.72-.9.27-1.51.27zm6.99-.1v-6.65h1.23v6.65zm5.73 0v-6.65h1.02l4.17 5.12h-.5v-5.12h1.23v6.65h-1.02l-4.17-5.12h.5v5.12zm10.2 0v-6.65h4.85v1.04H46.8v4.58h3.75v1.04h-4.99zm1.14-2.86v-1.02h3.31v1.02zm10.18 2.96c-.52 0-1.02-.07-1.49-.22-.48-.15-.85-.34-1.13-.58l.43-.96c.27.21.6.38.99.52s.79.21 1.21.21c.35 0 .63-.04.85-.11s.37-.18.48-.31c.1-.13.15-.28.15-.44 0-.2-.07-.37-.22-.49s-.33-.22-.57-.29c-.23-.07-.49-.14-.77-.2s-.56-.14-.85-.22c-.28-.08-.54-.2-.77-.33a1.76 1.76 0 0 1-.57-.55c-.15-.23-.22-.52-.22-.87s.1-.69.29-.99.49-.54.88-.72c.4-.18.9-.27 1.51-.27.4 0 .79.05 1.19.15s.73.25 1.03.44l-.39.96c-.3-.18-.6-.31-.92-.39s-.62-.13-.91-.13c-.34 0-.62.04-.83.12s-.37.19-.47.32-.15.29-.15.46c0 .2.07.37.21.49s.33.22.56.29.49.14.77.2.57.14.85.22.54.19.77.32.42.31.56.54.21.52.21.86-.1.68-.29.98-.49.54-.89.72-.9.27-1.51.27zm8.67 0c-.52 0-1.02-.07-1.49-.22-.48-.15-.85-.34-1.13-.58l.43-.96c.27.21.6.38.99.52s.79.21 1.21.21c.35 0 .63-.04.85-.11s.37-.18.48-.31c.1-.13.15-.28.15-.44 0-.2-.07-.37-.22-.49s-.33-.22-.57-.29c-.23-.07-.49-.14-.77-.2s-.56-.14-.85-.22c-.28-.08-.54-.2-.77-.33a1.76 1.76 0 0 1-.57-.55c-.15-.23-.22-.52-.22-.87s.1-.69.29-.99.49-.54.88-.72c.4-.18.9-.27 1.51-.27.4 0 .79.05 1.19.15s.73.25 1.03.44l-.39.96c-.3-.18-.6-.31-.92-.39s-.62-.13-.91-.13c-.34 0-.62.04-.83.12s-.37.19-.47.32-.15.29-.15.46c0 .2.07.37.21.49s.33.22.56.29.49.14.77.2.57.14.85.22.54.19.77.32.42.31.56.54.21.52.21.86-.1.68-.29.98-.49.54-.89.72-.9.27-1.51.27z"/></svg>