<svg xmlns="http://www.w3.org/2000/svg" width="142" height="22" fill="none"><path fill="var(--asus-green-light, #00b464)" d="m125.08 0 6.8 10.77-6.8 10.77h9.42l2.09-3.31 4.7-7.46-4.7-7.46L134.5 0z"/><path fill="var(--asus-green-dark, #008264)" d="m131.88 10.77 4.71 7.46 4.7-7.46z"/><path fill="var(--asus-green, #009b64)" d="M131.88 10.77h9.41l-4.7-7.46z"/><path fill="var(--asus-black, #000000)" d="M0 17.76v-14h10.22v2.18H2.6v9.64h7.9v2.18zm2.4-6.04V9.58h6.96v2.14zm10.4 6.04v-14h6.12c1.52 0 2.85.29 4 .88s2.04 1.4 2.68 2.44.96 2.27.96 3.68-.32 2.62-.96 3.67-1.53 1.86-2.68 2.45-2.48.88-4 .88zm2.6-2.2h3.4c1.04 0 1.95-.2 2.72-.6s1.37-.96 1.79-1.68q.63-1.08.63-2.52c0-.96-.21-1.82-.63-2.53a4.4 4.4 0 0 0-1.79-1.67c-.77-.4-1.68-.6-2.72-.6h-3.4zm19.34 2.4c-1.92 0-3.42-.54-4.51-1.62s-1.63-2.64-1.63-4.68v-7.9h2.6v7.8c0 1.44.31 2.49.93 3.14s1.5.98 2.63.98 2.01-.33 2.62-.98.92-1.7.92-3.14v-7.8h2.56v7.9c0 2.04-.54 3.6-1.63 4.68s-2.58 1.62-4.49 1.62m15.64 0c-1.07 0-2.06-.18-2.97-.53s-1.71-.85-2.38-1.5-1.2-1.41-1.57-2.29-.56-1.84-.56-2.88.19-2 .56-2.88.9-1.64 1.58-2.29 1.47-1.15 2.38-1.5 1.9-.53 2.98-.53c1.15 0 2.19.2 3.14.59s1.75.98 2.4 1.75l-1.68 1.58c-.51-.55-1.07-.96-1.7-1.23s-1.31-.41-2.04-.41q-1.095 0-2.01.36c-.61.24-1.13.58-1.58 1.02s-.79.96-1.04 1.56-.37 1.26-.37 1.98.12 1.38.37 1.98.59 1.12 1.04 1.56.97.78 1.58 1.02q.915.36 2.01.36c.73 0 1.41-.14 2.04-.41s1.19-.69 1.7-1.25l1.68 1.6q-.975 1.14-2.4 1.74c-.95.4-2 .6-3.16.6m6.22-.2 6.3-14h2.56l6.32 14h-2.72L63.64 5.14h1.04l-5.4 12.62zm2.9-3.24.7-2.04h7.56l.7 2.04zm15.6 3.24V5.96h-4.64v-2.2h11.88v2.2H77.7v11.8zm9.8 0v-14h2.6v14zm12.34.2c-1.09 0-2.1-.18-3.02-.54s-1.72-.86-2.4-1.51a6.8 6.8 0 0 1-1.58-2.28c-.37-.87-.56-1.83-.56-2.87s.19-2 .56-2.87.9-1.63 1.58-2.28 1.48-1.15 2.4-1.51q1.38-.54 3-.54c1.08 0 2.1.18 3.01.54s1.71.86 2.39 1.51a6.8 6.8 0 0 1 1.58 2.28c.37.87.56 1.83.56 2.87s-.19 2-.56 2.88-.9 1.64-1.58 2.28a7.5 7.5 0 0 1-2.39 1.5c-.91.36-1.91.54-2.99.54m-.02-2.28c.71 0 1.36-.12 1.96-.36s1.12-.58 1.56-1.03.78-.97 1.03-1.56.37-1.25.37-1.97-.12-1.38-.37-1.97-.59-1.11-1.03-1.56a4.5 4.5 0 0 0-1.56-1.03c-.6-.24-1.25-.36-1.96-.36q-1.065 0-1.95.36c-.59.24-1.11.58-1.56 1.03s-.79.97-1.04 1.56-.37 1.25-.37 1.97.12 1.36.37 1.96.59 1.12 1.03 1.57.96.79 1.56 1.03 1.25.36 1.96.36m9.7 2.08v-14h2.14l8.78 10.78h-1.06V3.76h2.58v14h-2.14l-8.78-10.78h1.06v10.78z"/></svg>