<svg xmlns="http://www.w3.org/2000/svg" width="94" height="27" fill="none"><path fill="var(--asus-black, #000000)" d="M33.53.24H21.42c-2.81 0-4.06 1.76-4.34 3.43V.24h-6.72c-.94 0-1.39.28-1.84.94L6.68 3.87h26.86V.24zM0 14.42h4.82l6.04-9.75-4.31-.43zM38.21.24h-3.97v3.63h3.97zm25.21 5.67-12.43-.74c0 1.9 1.25 3.18 3.38 3.35l8.85.68c.68.06 1.11.23 1.11.79s-.48.74-1.47.74H50.8v3.69h12.31c3.89 0 5.59-1.36 5.59-4.45 0-2.78-1.53-3.83-5.28-4.06"/><path fill="var(--asus-black, #000000)" d="m50.84 5.18-3.92-.23v4.17c0 1.31-.65 1.7-2.92 1.7h-3.12c-1.87 0-2.67-.54-2.67-1.7V4.55l-3.97-.28v5.19h-.09c-.23-1.5-.79-3.26-4.57-3.52l-12.43-.82c0 1.9 1.36 3.04 3.49 3.26l8.65.88c.68.06 1.19.25 1.19.82 0 .62-.51.68-1.31.68H17V5.09l-3.97-.26v9.59H29.2c3.6 0 4.77-1.87 4.94-3.43h.09c.45 2.47 2.61 3.43 6.27 3.43h4.03c4.28 0 6.3-1.31 6.3-4.37V5.17zm17.58-1.31V.24H55.09c-2.78 0-4.03 1.72-4.25 3.38v.06V.25h-3.92v3.63h21.5z"/><path fill="var(--asus-green-light, #00b464)" d="m73.67 0 8.47 13.42-8.47 13.42H85.4l2.61-4.13 5.87-9.29-5.87-9.29L85.4 0z"/><path fill="var(--asus-green-dark, #008264)" d="m82.14 13.42 5.87 9.29 5.87-9.29z"/><path fill="var(--asus-green, #009b64)" d="M82.14 13.42h11.74l-5.87-9.29z"/><path fill="var(--asus-black, #000000)" d="M.32 26.359v-6.65h4.85v1.04H1.55v4.58H5.3v1.04H.31zm1.14-2.87v-1.02h3.31v1.02zm6.4 2.87v-6.65h2.91c.72 0 1.36.14 1.9.42s.97.67 1.27 1.16.46 1.08.46 1.75-.15 1.25-.46 1.74c-.3.5-.73.89-1.27 1.16-.54.28-1.18.42-1.9.42zm1.24-1.05h1.62c.49 0 .92-.09 1.29-.29.37-.19.65-.46.85-.8q.3-.51.3-1.2t-.3-1.2c-.2-.34-.48-.6-.85-.79s-.8-.29-1.29-.29H9.1zm10.65 1.14c-.91 0-1.63-.26-2.14-.77-.52-.51-.77-1.25-.77-2.22v-3.75h1.24v3.71c0 .68.15 1.18.44 1.49s.71.46 1.25.46.95-.16 1.25-.46c.29-.31.44-.81.44-1.49v-3.71h1.22v3.75c0 .97-.26 1.71-.77 2.22-.52.51-1.23.77-2.13.77zm8.89.001a3.8 3.8 0 0 1-1.41-.25c-.43-.17-.81-.4-1.13-.71s-.57-.67-.75-1.09-.27-.87-.27-1.37.09-.95.27-1.37.43-.78.75-1.09.7-.54 1.13-.71.9-.25 1.42-.25c.54 0 1.04.09 1.49.28s.83.46 1.14.83l-.8.75a2.4 2.4 0 0 0-1.78-.78c-.35 0-.67.06-.95.17s-.54.28-.75.48-.38.46-.49.74-.18.6-.18.94.06.66.18.94.28.53.49.74q.315.315.75.48c.29.11.61.17.95.17s.67-.06.97-.19.57-.33.81-.59l.8.76c-.31.36-.69.64-1.14.83s-.95.29-1.5.29m4.41-.091 2.99-6.65h1.22l3 6.65h-1.29l-2.57-5.99h.49l-2.56 5.99zm1.38-1.54.33-.97h3.59l.33.97h-4.26zm8.88 1.54v-5.61h-2.2v-1.04h5.64v1.04h-2.2v5.61zm6.11 0v-6.65h1.24v6.65zm7.33.091c-.52 0-1-.08-1.43-.26a3.36 3.36 0 0 1-1.89-1.8c-.18-.42-.27-.87-.27-1.36s.09-.95.27-1.36.43-.78.75-1.08q.48-.465 1.14-.72c.44-.17.91-.26 1.42-.26s1 .09 1.43.26.81.41 1.13.72q.48.465.75 1.08c.18.42.27.87.27 1.36s-.09.95-.27 1.37q-.27.63-.75 1.08c-.32.3-.7.54-1.13.71s-.91.26-1.42.26m-.01-1.08c.34 0 .65-.06.93-.17s.53-.28.74-.49.37-.46.49-.74.18-.59.18-.94-.06-.65-.18-.94a2.22 2.22 0 0 0-1.23-1.23c-.28-.11-.6-.17-.93-.17s-.64.06-.93.17-.53.28-.74.49-.38.46-.49.74-.18.59-.18.94.06.65.18.93.28.53.49.75c.21.21.46.38.74.49s.6.17.93.17m6.07.989v-6.65h1.02l4.17 5.12h-.5v-5.12h1.23v6.65h-1.02l-4.17-5.12h.5v5.12z"/></svg>