<svg xmlns="http://www.w3.org/2000/svg" width="224" height="22" fill="none"><path fill="var(--color-white, #ffffff)" d="M33.5 3.79H21.39c-2.81 0-4.05 1.76-4.34 3.43V3.79h-6.72c-.94 0-1.39.28-1.84.94L6.65 7.42H33.5zM0 17.97h4.82l6.03-9.75-4.31-.43zM38.18 3.79h-3.97v3.63h3.97zm25.2 5.669-12.42-.74c0 1.9 1.25 3.18 3.37 3.35l8.84.68c.68.06 1.11.23 1.11.79s-.48.74-1.47.74H50.76v3.69h12.3c3.88 0 5.58-1.36 5.58-4.45 0-2.78-1.53-3.83-5.27-4.05z"/><path fill="var(--color-white, #ffffff)" d="m50.8 8.728-3.91-.23v4.17c0 1.3-.65 1.7-2.92 1.7h-3.12c-1.87 0-2.66-.54-2.66-1.7v-4.56l-3.97-.28v5.19h-.09c-.23-1.5-.79-3.26-4.56-3.52l-12.42-.82c0 1.9 1.36 3.03 3.49 3.26l8.65.88c.68.06 1.19.25 1.19.82 0 .62-.51.68-1.3.68H17.02v-5.67l-3.97-.26v9.58h16.16c3.6 0 4.76-1.87 4.93-3.43h.09c.45 2.47 2.61 3.43 6.27 3.43h4.03c4.28 0 6.29-1.3 6.29-4.37v-4.88zM68.37 7.42V3.79H55.05c-2.77 0-4.02 1.72-4.24 3.37v.06-3.43H46.9v3.63h21.49zm14.42 10.52v-14h10.22v2.18h-7.62v9.64h7.9v2.18zm2.4-6.04V9.76h6.96v2.14zm10.4 6.04v-14h6.12c1.52 0 2.85.29 4 .88s2.04 1.4 2.68 2.44.96 2.27.96 3.68-.32 2.62-.96 3.67-1.53 1.86-2.68 2.45-2.48.88-4 .88zm2.6-2.2h3.4c1.04 0 1.95-.2 2.72-.6s1.37-.96 1.79-1.68q.63-1.08.63-2.52c0-.96-.21-1.82-.63-2.53a4.4 4.4 0 0 0-1.79-1.67c-.77-.4-1.68-.6-2.72-.6h-3.4zm19.34 2.4c-1.92 0-3.42-.54-4.51-1.62s-1.63-2.64-1.63-4.68v-7.9h2.6v7.8c0 1.44.31 2.49.93 3.14s1.5.98 2.63.98 2.01-.33 2.62-.98.92-1.7.92-3.14v-7.8h2.56v7.9c0 2.04-.54 3.6-1.63 4.68s-2.58 1.62-4.49 1.62m15.64 0c-1.07 0-2.06-.18-2.97-.53s-1.71-.85-2.38-1.5-1.2-1.41-1.57-2.29-.56-1.84-.56-2.88.19-2 .56-2.88.9-1.64 1.58-2.29 1.47-1.15 2.38-1.5 1.9-.53 2.98-.53c1.15 0 2.19.2 3.14.59s1.75.98 2.4 1.75l-1.68 1.58c-.51-.55-1.07-.96-1.7-1.23s-1.31-.41-2.04-.41q-1.095 0-2.01.36c-.61.24-1.13.58-1.58 1.02s-.79.96-1.04 1.56-.37 1.26-.37 1.98.12 1.38.37 1.98.59 1.12 1.04 1.56.97.78 1.58 1.02q.915.36 2.01.36c.73 0 1.41-.14 2.04-.41s1.19-.69 1.7-1.25l1.68 1.6q-.975 1.14-2.4 1.74c-.95.4-2 .6-3.16.6m6.22-.2 6.3-14h2.56l6.32 14h-2.72l-5.42-12.62h1.04l-5.4 12.62zm2.9-3.24.7-2.04h7.56l.7 2.04zm15.6 3.24V6.14h-4.64v-2.2h11.88v2.2h-4.64v11.8zm9.8 0v-14h2.6v14zm12.34.2c-1.09 0-2.1-.18-3.02-.54s-1.72-.86-2.4-1.51a6.8 6.8 0 0 1-1.58-2.28c-.37-.87-.56-1.83-.56-2.87s.19-2 .56-2.87.9-1.63 1.58-2.28 1.48-1.15 2.4-1.51q1.38-.54 3-.54c1.08 0 2.1.18 3.01.54s1.71.86 2.39 1.51a6.8 6.8 0 0 1 1.58 2.28c.37.87.56 1.83.56 2.87s-.19 2-.56 2.88-.9 1.64-1.58 2.28a7.5 7.5 0 0 1-2.39 1.5c-.91.36-1.91.54-2.99.54m-.02-2.28c.71 0 1.36-.12 1.96-.36s1.12-.58 1.56-1.03.78-.97 1.03-1.56.37-1.25.37-1.97-.12-1.38-.37-1.97-.59-1.11-1.03-1.56-.96-.79-1.56-1.03-1.25-.36-1.96-.36q-1.065 0-1.95.36c-.59.24-1.11.58-1.56 1.03s-.79.97-1.04 1.56-.37 1.25-.37 1.97.12 1.36.37 1.96.59 1.12 1.03 1.57.96.79 1.56 1.03 1.25.36 1.96.36m9.7 2.08v-14h2.14l8.78 10.78h-1.06V3.94h2.58v14h-2.14l-8.78-10.78h1.06v10.78zm25.2-6.74 4.11 6.51 4.11-6.51zm0-.87h8.22l-4.11-6.51zM207.84 0l6.28 9.95 4.38-6.94L216.6 0zm0 21.53h8.76l1.9-3.01-4.38-6.94z"/></svg>