<svg xmlns="http://www.w3.org/2000/svg" width="225" height="20" fill="none"><path fill="#231815" d="M20.71 17.02c-.84 0-1.57-.1-2.19-.31s-1.13-.45-1.54-.71q-.705-.45-1.2-1.05l1.48-1.48c.21.29.49.55.83.79.29.2.65.38 1.09.54.43.16.95.25 1.54.25.45 0 .84-.06 1.18-.17q.51-.165.87-.45a1.84 1.84 0 0 0 .71-1.45c0-.38-.1-.69-.31-.94-.21-.24-.49-.45-.83-.62s-.73-.31-1.16-.43-.88-.25-1.34-.39-.91-.3-1.34-.49-.82-.43-1.16-.73-.62-.66-.83-1.09-.31-.97-.31-1.62c0-.51.11-1 .32-1.47.22-.47.53-.88.94-1.23s.9-.63 1.49-.84c.58-.2 1.24-.31 1.98-.31.71 0 1.33.09 1.87.28.54.18.99.39 1.36.61.43.26.8.56 1.1.89l-1.48 1.48c-.21-.24-.45-.45-.73-.63-.24-.16-.54-.31-.9-.44q-.54-.21-1.23-.21c-.84 0-1.48.19-1.91.56s-.65.81-.65 1.31c0 .38.1.69.31.94.21.24.49.45.83.62s.73.31 1.16.43.88.25 1.34.38c.46.14.91.3 1.34.49s.82.43 1.16.73.62.66.83 1.09.31.97.31 1.62c0 .54-.12 1.05-.35 1.55-.23.49-.56.92-.98 1.29s-.94.66-1.55.88c-.6.22-1.29.33-2.05.33m13.97 0q-1.305 0-2.37-.42c-.71-.28-1.32-.68-1.83-1.18-.51-.51-.91-1.11-1.19-1.8-.28-.7-.42-1.46-.42-2.31V3.03h2.17v8.28c0 .54.09 1.04.28 1.5.18.46.44.86.77 1.19s.72.59 1.16.78.93.28 1.44.28c.49 0 .95-.1 1.4-.3s.83-.46 1.16-.8.59-.73.79-1.19.3-.95.3-1.46V3.03h2.17v8.28q0 1.26-.42 2.31c-.28.7-.68 1.3-1.19 1.8-.51.51-1.12.9-1.83 1.18-.74.28-1.53.42-2.39.42m13.97 0c-.84 0-1.57-.1-2.19-.31s-1.13-.45-1.54-.71q-.705-.45-1.2-1.05l1.48-1.48c.21.29.49.55.83.79.29.2.65.38 1.09.54.43.16.95.25 1.54.25.45 0 .84-.06 1.18-.17q.51-.165.87-.45a1.84 1.84 0 0 0 .71-1.45c0-.38-.1-.69-.31-.94-.21-.24-.49-.45-.83-.62a6.5 6.5 0 0 0-1.16-.43c-.43-.12-.88-.25-1.34-.39s-.91-.3-1.34-.49-.82-.43-1.16-.73-.62-.66-.83-1.09-.31-.97-.31-1.62c0-.51.11-1 .32-1.47.22-.47.53-.88.94-1.23s.9-.63 1.49-.84c.58-.2 1.24-.31 1.98-.31.71 0 1.33.09 1.87.28s.99.39 1.36.61c.43.26.8.56 1.1.89l-1.48 1.48c-.21-.24-.45-.45-.73-.63-.24-.16-.54-.31-.9-.44q-.54-.21-1.23-.21c-.84 0-1.48.19-1.91.56s-.65.81-.65 1.31c0 .38.1.69.31.94.21.24.49.45.83.62s.73.31 1.16.43.88.25 1.34.38c.46.14.91.3 1.34.49s.82.43 1.16.73.62.66.83 1.09.31.97.31 1.62c0 .54-.12 1.05-.35 1.55-.23.49-.56.92-.98 1.29s-.94.66-1.55.88c-.6.22-1.29.33-2.05.33m-37.51-.2h2.27L7.89 3.02H5.52L0 16.82h2.27l1.16-2.95h6.55zm-6.89-5.01 2.46-6.22 2.46 6.22z"/><path fill="#008DD3" d="m218.8 0 6.18 9.91-6.18 9.93h-7.97l6.18-9.93L210.83 0z"/><path fill="#231815" d="m86.55 9.63-4.53-6.6h2.56l3.35 5.03 3.35-5.03h2.56l-4.54 6.6 4.93 7.2h-2.56l-3.75-5.62-3.75 5.62h-2.56zm52.339 7.19-3.59-5.21.22-.06c.57-.23 1.05-.54 1.47-.95a4.33 4.33 0 0 0 1.32-3.15c0-.62-.12-1.2-.35-1.73-.23-.54-.55-1.01-.97-1.41-.41-.4-.9-.72-1.47-.95s-1.18-.35-1.85-.35h-5.52v13.8h2.17V4.98h3.35c.34 0 .66.06.97.19s.57.3.79.52.4.49.52.79c.13.3.19.62.19.97 0 .34-.06.66-.19.97-.12.3-.3.57-.52.79s-.49.4-.79.52c-.3.13-.62.19-.97.19h-2.01l1.37 1.97h.01l3.4 4.93zM107.84 5.72c-.23-.54-.55-1.01-.97-1.41-.41-.4-.9-.72-1.47-.95s-1.18-.35-1.85-.35h-5.52v13.8h2.17V4.98h3.35c.34 0 .66.06.97.19s.57.3.79.52.4.49.52.79c.13.3.19.62.19.97 0 .34-.06.66-.19.97-.12.3-.3.57-.52.79s-.49.4-.79.52c-.3.13-.62.19-.97.19h-2.01l1.37 1.97h.64c.67 0 1.29-.12 1.85-.35.57-.23 1.05-.54 1.47-.95a4.33 4.33 0 0 0 1.32-3.15c0-.6-.12-1.18-.35-1.72m-30-.63V3.02h-9.75v13.8h9.75v-2.07h-7.68v-3.79h7.68V8.89h-7.68v-3.8zm44.3 0V3.02h-9.76v13.8h9.76v-2.07h-7.69v-3.79h7.69V8.89h-7.69v-3.8zm30.13-2.07h-10.45v.02l1.41 2.05h2.73v11.73h2.17V5.09h4.14zm36.89-.1h5.52q.93 0 1.68.3c.51.2.94.46 1.31.79s.65.72.85 1.16c.2.45.3.91.3 1.4 0 .53-.09.96-.27 1.3s-.37.62-.58.85c-.24.25-.51.45-.83.61.45.18.84.43 1.18.75.3.26.57.61.82 1.03.24.43.36.95.36 1.57 0 .54-.11 1.05-.34 1.55-.22.49-.53.92-.94 1.29-.4.37-.88.66-1.43.88q-.825.33-1.83.33h-5.82V2.92zm5.52 5.62c.59 0 1.07-.17 1.43-.52q.54-.525.54-1.35t-.54-1.35c-.36-.35-.84-.52-1.43-.52h-3.35v3.75h3.35zm.3 6.31c.7 0 1.26-.22 1.71-.65q.66-.645.66-1.62 0-.96-.66-1.62c-.44-.43-1.01-.65-1.71-.65h-3.65v4.53h3.65zm-16.53 2.07q-1.305 0-2.37-.42c-.71-.28-1.32-.68-1.83-1.18-.51-.51-.91-1.11-1.19-1.8-.28-.7-.42-1.46-.42-2.31V2.93h2.17v8.28c0 .54.09 1.04.28 1.5.18.46.44.86.77 1.19s.72.59 1.16.78c.45.18.93.28 1.44.28.49 0 .95-.1 1.4-.3s.83-.46 1.16-.8.59-.73.79-1.19.3-.95.3-1.46V2.93h2.17v8.28q0 1.26-.42 2.31c-.28.7-.68 1.3-1.19 1.8-.51.51-1.12.9-1.83 1.18-.73.28-1.52.42-2.39.42M157.03 2.96h2.16v5.78h6.76V2.96h2.16v13.72h-2.16V10.7h-6.76v5.98h-2.16z"/></svg>